<svg width="814" height="390" viewBox="0 0 814 390" fill="none" xmlns="http://www.w3.org/2000/svg">
<rect width="814" height="390" rx="10" fill="white"/>
<path d="M33.1839 117.604H33.6279V125.524H32.3559V119.104L30.7479 119.62L30.4359 118.504L33.1839 117.604ZM35.5557 121.492C35.5557 120.284 35.8117 119.316 36.3237 118.588C36.8357 117.844 37.5877 117.472 38.5797 117.472C39.5717 117.472 40.3197 117.84 40.8237 118.576C41.3357 119.304 41.5917 120.276 41.5917 121.492C41.5917 122.724 41.3317 123.728 40.8117 124.504C40.2997 125.272 39.5557 125.656 38.5797 125.656C37.6037 125.656 36.8557 125.268 36.3357 124.492C35.8157 123.716 35.5557 122.716 35.5557 121.492ZM40.2717 121.504C40.2717 119.592 39.7077 118.636 38.5797 118.636C37.4437 118.636 36.8757 119.592 36.8757 121.504C36.8757 123.496 37.4437 124.492 38.5797 124.492C39.7077 124.492 40.2717 123.496 40.2717 121.504ZM43.0557 121.492C43.0557 120.284 43.3117 119.316 43.8237 118.588C44.3357 117.844 45.0877 117.472 46.0797 117.472C47.0717 117.472 47.8197 117.84 48.3237 118.576C48.8357 119.304 49.0917 120.276 49.0917 121.492C49.0917 122.724 48.8317 123.728 48.3117 124.504C47.7997 125.272 47.0557 125.656 46.0797 125.656C45.1037 125.656 44.3557 125.268 43.8357 124.492C43.3157 123.716 43.0557 122.716 43.0557 121.492ZM47.7717 121.504C47.7717 119.592 47.2077 118.636 46.0797 118.636C44.9437 118.636 44.3757 119.592 44.3757 121.504C44.3757 123.496 44.9437 124.492 46.0797 124.492C47.2077 124.492 47.7717 123.496 47.7717 121.504ZM50.5557 119.416C50.5557 118.88 50.7517 118.424 51.1437 118.048C51.5357 117.664 52.0117 117.472 52.5717 117.472C53.1157 117.472 53.5837 117.664 53.9757 118.048C54.3677 118.424 54.5637 118.88 54.5637 119.416C54.5637 119.96 54.3677 120.424 53.9757 120.808C53.5837 121.184 53.1157 121.372 52.5717 121.372C52.0117 121.372 51.5357 121.184 51.1437 120.808C50.7517 120.432 50.5557 119.968 50.5557 119.416ZM52.1397 125.524L56.6757 117.604H57.7437L53.1957 125.524H52.1397ZM53.5677 119.416C53.5677 119.12 53.4717 118.872 53.2797 118.672C53.0877 118.464 52.8517 118.36 52.5717 118.36C52.2837 118.36 52.0437 118.46 51.8517 118.66C51.6677 118.86 51.5757 119.112 51.5757 119.416C51.5757 119.72 51.6677 119.972 51.8517 120.172C52.0357 120.372 52.2757 120.472 52.5717 120.472C52.8517 120.472 53.0877 120.372 53.2797 120.172C53.4717 119.972 53.5677 119.72 53.5677 119.416ZM55.3077 123.7C55.3077 123.148 55.4997 122.684 55.8837 122.308C56.2757 121.932 56.7477 121.744 57.2997 121.744C57.8517 121.744 58.3237 121.932 58.7157 122.308C59.1077 122.684 59.3037 123.148 59.3037 123.7C59.3037 124.236 59.1077 124.696 58.7157 125.08C58.3237 125.456 57.8517 125.644 57.2997 125.644C56.7477 125.644 56.2757 125.456 55.8837 125.08C55.4997 124.696 55.3077 124.236 55.3077 123.7ZM58.2957 123.7C58.2957 123.396 58.1997 123.144 58.0077 122.944C57.8237 122.744 57.5917 122.644 57.3117 122.644C57.0157 122.644 56.7757 122.744 56.5917 122.944C56.4077 123.136 56.3157 123.388 56.3157 123.7C56.3157 124.004 56.4077 124.256 56.5917 124.456C56.7757 124.648 57.0157 124.744 57.3117 124.744C57.5917 124.744 57.8237 124.644 58.0077 124.444C58.1997 124.244 58.2957 123.996 58.2957 123.7Z" fill="#8F8F8F"/>
<path d="M36.5199 203.936C36.5199 204.6 36.2519 205.132 35.7159 205.532C35.1879 205.932 34.4999 206.132 33.6519 206.132C32.7959 206.132 32.0999 205.932 31.5639 205.532C31.0279 205.132 30.7599 204.6 30.7599 203.936C30.7599 202.984 31.3319 202.3 32.4759 201.884C31.5799 201.396 31.1319 200.76 31.1319 199.976C31.1319 199.336 31.3679 198.84 31.8399 198.488C32.3199 198.128 32.9239 197.948 33.6519 197.948C34.3719 197.948 34.9679 198.128 35.4399 198.488C35.9119 198.84 36.1479 199.336 36.1479 199.976C36.1479 200.768 35.6999 201.404 34.8039 201.884C35.9479 202.308 36.5199 202.992 36.5199 203.936ZM32.3439 200.024C32.3439 200.304 32.4399 200.536 32.6319 200.72C32.8319 200.904 33.1679 201.1 33.6399 201.308C34.1119 201.108 34.4439 200.916 34.6359 200.732C34.8359 200.54 34.9359 200.304 34.9359 200.024C34.9359 199.712 34.8159 199.464 34.5759 199.28C34.3439 199.088 34.0359 198.992 33.6519 198.992C33.2599 198.992 32.9439 199.088 32.7039 199.28C32.4639 199.464 32.3439 199.712 32.3439 200.024ZM35.2359 203.888C35.2359 203.544 35.1119 203.268 34.8639 203.06C34.6159 202.852 34.2079 202.644 33.6399 202.436C33.0799 202.636 32.6719 202.844 32.4159 203.06C32.1679 203.276 32.0439 203.552 32.0439 203.888C32.0439 204.256 32.1839 204.548 32.4639 204.764C32.7519 204.972 33.1479 205.076 33.6519 205.076C34.1559 205.076 34.5439 204.972 34.8159 204.764C35.0959 204.548 35.2359 204.256 35.2359 203.888ZM37.876 201.968C37.876 200.76 38.132 199.792 38.644 199.064C39.156 198.32 39.908 197.948 40.9 197.948C41.892 197.948 42.64 198.316 43.144 199.052C43.656 199.78 43.912 200.752 43.912 201.968C43.912 203.2 43.652 204.204 43.132 204.98C42.62 205.748 41.876 206.132 40.9 206.132C39.924 206.132 39.176 205.744 38.656 204.968C38.136 204.192 37.876 203.192 37.876 201.968ZM42.592 201.98C42.592 200.068 42.028 199.112 40.9 199.112C39.764 199.112 39.196 200.068 39.196 201.98C39.196 203.972 39.764 204.968 40.9 204.968C42.028 204.968 42.592 203.972 42.592 201.98ZM45.376 199.892C45.376 199.356 45.572 198.9 45.964 198.524C46.356 198.14 46.832 197.948 47.392 197.948C47.936 197.948 48.404 198.14 48.796 198.524C49.188 198.9 49.384 199.356 49.384 199.892C49.384 200.436 49.188 200.9 48.796 201.284C48.404 201.66 47.936 201.848 47.392 201.848C46.832 201.848 46.356 201.66 45.964 201.284C45.572 200.908 45.376 200.444 45.376 199.892ZM46.96 206L51.496 198.08H52.564L48.016 206H46.96ZM48.388 199.892C48.388 199.596 48.292 199.348 48.1 199.148C47.908 198.94 47.672 198.836 47.392 198.836C47.104 198.836 46.864 198.936 46.672 199.136C46.488 199.336 46.396 199.588 46.396 199.892C46.396 200.196 46.488 200.448 46.672 200.648C46.856 200.848 47.096 200.948 47.392 200.948C47.672 200.948 47.908 200.848 48.1 200.648C48.292 200.448 48.388 200.196 48.388 199.892ZM50.128 204.176C50.128 203.624 50.32 203.16 50.704 202.784C51.096 202.408 51.568 202.22 52.12 202.22C52.672 202.22 53.144 202.408 53.536 202.784C53.928 203.16 54.124 203.624 54.124 204.176C54.124 204.712 53.928 205.172 53.536 205.556C53.144 205.932 52.672 206.12 52.12 206.12C51.568 206.12 51.096 205.932 50.704 205.556C50.32 205.172 50.128 204.712 50.128 204.176ZM53.116 204.176C53.116 203.872 53.02 203.62 52.828 203.42C52.644 203.22 52.412 203.12 52.132 203.12C51.836 203.12 51.596 203.22 51.412 203.42C51.228 203.612 51.136 203.864 51.136 204.176C51.136 204.48 51.228 204.732 51.412 204.932C51.596 205.124 51.836 205.22 52.132 205.22C52.412 205.22 52.644 205.12 52.828 204.92C53.02 204.72 53.116 204.472 53.116 204.176Z" fill="#8F8F8F"/>
<path d="M36.2919 160.458C36.2919 160.762 36.2439 161.054 36.1479 161.334C36.0759 161.558 35.9639 161.802 35.8119 162.066C35.6839 162.282 35.4799 162.582 35.1999 162.966L33.2319 165.762H31.7199L33.6279 163.062C33.5239 163.086 33.4079 163.098 33.2799 163.098C32.5919 163.098 31.9879 162.842 31.4679 162.33C30.9479 161.81 30.6879 161.182 30.6879 160.446C30.6879 159.678 30.9639 159.03 31.5159 158.502C32.0679 157.974 32.7279 157.71 33.4959 157.71C34.2559 157.694 34.9159 157.958 35.4759 158.502C36.0359 159.038 36.3079 159.69 36.2919 160.458ZM34.5879 161.562C34.8839 161.266 35.0319 160.894 35.0319 160.446C35.0319 159.998 34.8839 159.626 34.5879 159.33C34.2839 159.026 33.9199 158.874 33.4959 158.874C33.0559 158.874 32.6839 159.026 32.3799 159.33C32.0839 159.626 31.9359 159.998 31.9359 160.446C31.9359 160.902 32.0839 161.278 32.3799 161.574C32.6759 161.87 33.0479 162.018 33.4959 162.018C33.9199 162.018 34.2839 161.866 34.5879 161.562ZM37.5479 161.73C37.5479 160.522 37.8039 159.554 38.3159 158.826C38.8279 158.082 39.5799 157.71 40.5719 157.71C41.5639 157.71 42.3119 158.078 42.8159 158.814C43.3279 159.542 43.5839 160.514 43.5839 161.73C43.5839 162.962 43.3239 163.966 42.8039 164.742C42.2919 165.51 41.5479 165.894 40.5719 165.894C39.5959 165.894 38.8479 165.506 38.3279 164.73C37.8079 163.954 37.5479 162.954 37.5479 161.73ZM42.2639 161.742C42.2639 159.83 41.6999 158.874 40.5719 158.874C39.4359 158.874 38.8679 159.83 38.8679 161.742C38.8679 163.734 39.4359 164.73 40.5719 164.73C41.6999 164.73 42.2639 163.734 42.2639 161.742ZM45.0479 159.654C45.0479 159.118 45.2439 158.662 45.6359 158.286C46.0279 157.902 46.5039 157.71 47.0639 157.71C47.6079 157.71 48.0759 157.902 48.4679 158.286C48.8599 158.662 49.0559 159.118 49.0559 159.654C49.0559 160.198 48.8599 160.662 48.4679 161.046C48.0759 161.422 47.6079 161.61 47.0639 161.61C46.5039 161.61 46.0279 161.422 45.6359 161.046C45.2439 160.67 45.0479 160.206 45.0479 159.654ZM46.6319 165.762L51.1679 157.842H52.2359L47.6879 165.762H46.6319ZM48.0599 159.654C48.0599 159.358 47.9639 159.11 47.7719 158.91C47.5799 158.702 47.3439 158.598 47.0639 158.598C46.7759 158.598 46.5359 158.698 46.3439 158.898C46.1599 159.098 46.0679 159.35 46.0679 159.654C46.0679 159.958 46.1599 160.21 46.3439 160.41C46.5279 160.61 46.7679 160.71 47.0639 160.71C47.3439 160.71 47.5799 160.61 47.7719 160.41C47.9639 160.21 48.0599 159.958 48.0599 159.654ZM49.7999 163.938C49.7999 163.386 49.9919 162.922 50.3759 162.546C50.7679 162.17 51.2399 161.982 51.7919 161.982C52.3439 161.982 52.8159 162.17 53.2079 162.546C53.5999 162.922 53.7959 163.386 53.7959 163.938C53.7959 164.474 53.5999 164.934 53.2079 165.318C52.8159 165.694 52.3439 165.882 51.7919 165.882C51.2399 165.882 50.7679 165.694 50.3759 165.318C49.9919 164.934 49.7999 164.474 49.7999 163.938ZM52.7879 163.938C52.7879 163.634 52.6919 163.382 52.4999 163.182C52.3159 162.982 52.0839 162.882 51.8039 162.882C51.5079 162.882 51.2679 162.982 51.0839 163.182C50.8999 163.374 50.8079 163.626 50.8079 163.938C50.8079 164.242 50.8999 164.494 51.0839 164.694C51.2679 164.886 51.5079 164.982 51.8039 164.982C52.0839 164.982 52.3159 164.882 52.4999 164.682C52.6919 164.482 52.7879 164.234 52.7879 163.938Z" fill="#8F8F8F"/>
<path d="M36.2919 242.603C36.2919 243.371 36.0159 244.019 35.4639 244.547C34.9119 245.075 34.2519 245.339 33.4839 245.339C32.7239 245.355 32.0639 245.095 31.5039 244.559C30.9439 244.015 30.6719 243.359 30.6879 242.591C30.6879 242.295 30.7319 242.007 30.8199 241.727C30.9159 241.447 31.0279 241.203 31.1559 240.995C31.2679 240.811 31.4719 240.507 31.7679 240.083L33.7479 237.287H35.2479L33.3399 239.987C33.4439 239.963 33.5599 239.951 33.6879 239.951C34.3919 239.951 34.9999 240.211 35.5119 240.731C36.0319 241.243 36.2919 241.867 36.2919 242.603ZM35.0319 242.603C35.0319 242.163 34.8799 241.791 34.5759 241.487C34.2719 241.183 33.9079 241.031 33.4839 241.031C33.0519 241.031 32.6839 241.183 32.3799 241.487C32.0839 241.783 31.9359 242.155 31.9359 242.603C31.9359 243.059 32.0839 243.435 32.3799 243.731C32.6759 244.027 33.0439 244.175 33.4839 244.175C33.9159 244.175 34.2799 244.027 34.5759 243.731C34.8799 243.427 35.0319 243.051 35.0319 242.603ZM37.5479 241.175C37.5479 239.967 37.8039 238.999 38.3159 238.271C38.8279 237.527 39.5799 237.155 40.5719 237.155C41.5639 237.155 42.3119 237.523 42.8159 238.259C43.3279 238.987 43.5839 239.959 43.5839 241.175C43.5839 242.407 43.3239 243.411 42.8039 244.187C42.2919 244.955 41.5479 245.339 40.5719 245.339C39.5959 245.339 38.8479 244.951 38.3279 244.175C37.8079 243.399 37.5479 242.399 37.5479 241.175ZM42.2639 241.187C42.2639 239.275 41.6999 238.319 40.5719 238.319C39.4359 238.319 38.8679 239.275 38.8679 241.187C38.8679 243.179 39.4359 244.175 40.5719 244.175C41.6999 244.175 42.2639 243.179 42.2639 241.187ZM45.0479 239.099C45.0479 238.563 45.2439 238.107 45.6359 237.731C46.0279 237.347 46.5039 237.155 47.0639 237.155C47.6079 237.155 48.0759 237.347 48.4679 237.731C48.8599 238.107 49.0559 238.563 49.0559 239.099C49.0559 239.643 48.8599 240.107 48.4679 240.491C48.0759 240.867 47.6079 241.055 47.0639 241.055C46.5039 241.055 46.0279 240.867 45.6359 240.491C45.2439 240.115 45.0479 239.651 45.0479 239.099ZM46.6319 245.207L51.1679 237.287H52.2359L47.6879 245.207H46.6319ZM48.0599 239.099C48.0599 238.803 47.9639 238.555 47.7719 238.355C47.5799 238.147 47.3439 238.043 47.0639 238.043C46.7759 238.043 46.5359 238.143 46.3439 238.343C46.1599 238.543 46.0679 238.795 46.0679 239.099C46.0679 239.403 46.1599 239.655 46.3439 239.855C46.5279 240.055 46.7679 240.155 47.0639 240.155C47.3439 240.155 47.5799 240.055 47.7719 239.855C47.9639 239.655 48.0599 239.403 48.0599 239.099ZM49.7999 243.383C49.7999 242.831 49.9919 242.367 50.3759 241.991C50.7679 241.615 51.2399 241.427 51.7919 241.427C52.3439 241.427 52.8159 241.615 53.2079 241.991C53.5999 242.367 53.7959 242.831 53.7959 243.383C53.7959 243.919 53.5999 244.379 53.2079 244.763C52.8159 245.139 52.3439 245.327 51.7919 245.327C51.2399 245.327 50.7679 245.139 50.3759 244.763C49.9919 244.379 49.7999 243.919 49.7999 243.383ZM52.7879 243.383C52.7879 243.079 52.6919 242.827 52.4999 242.627C52.3159 242.427 52.0839 242.327 51.8039 242.327C51.5079 242.327 51.2679 242.427 51.0839 242.627C50.8999 242.819 50.8079 243.071 50.8079 243.383C50.8079 243.687 50.8999 243.939 51.0839 244.139C51.2679 244.331 51.5079 244.427 51.8039 244.427C52.0839 244.427 52.3159 244.327 52.4999 244.127C52.6919 243.927 52.7879 243.679 52.7879 243.383Z" fill="#8F8F8F"/>
<path d="M36.6759 282.972V284.064H35.5959V285.444H34.3239V284.064H30.3639V283.716L32.8959 277.524H34.2039L31.9599 282.972H34.3239V280.536H35.5959V282.972H36.6759ZM37.6182 281.412C37.6182 280.204 37.8742 279.236 38.3862 278.508C38.8982 277.764 39.6502 277.392 40.6422 277.392C41.6342 277.392 42.3822 277.76 42.8862 278.496C43.3982 279.224 43.6542 280.196 43.6542 281.412C43.6542 282.644 43.3942 283.648 42.8742 284.424C42.3622 285.192 41.6182 285.576 40.6422 285.576C39.6662 285.576 38.9182 285.188 38.3982 284.412C37.8782 283.636 37.6182 282.636 37.6182 281.412ZM42.3342 281.424C42.3342 279.512 41.7702 278.556 40.6422 278.556C39.5062 278.556 38.9382 279.512 38.9382 281.424C38.9382 283.416 39.5062 284.412 40.6422 284.412C41.7702 284.412 42.3342 283.416 42.3342 281.424ZM45.1182 279.336C45.1182 278.8 45.3142 278.344 45.7062 277.968C46.0982 277.584 46.5742 277.392 47.1342 277.392C47.6782 277.392 48.1462 277.584 48.5382 277.968C48.9302 278.344 49.1262 278.8 49.1262 279.336C49.1262 279.88 48.9302 280.344 48.5382 280.728C48.1462 281.104 47.6782 281.292 47.1342 281.292C46.5742 281.292 46.0982 281.104 45.7062 280.728C45.3142 280.352 45.1182 279.888 45.1182 279.336ZM46.7022 285.444L51.2382 277.524H52.3062L47.7582 285.444H46.7022ZM48.1302 279.336C48.1302 279.04 48.0342 278.792 47.8422 278.592C47.6502 278.384 47.4142 278.28 47.1342 278.28C46.8462 278.28 46.6062 278.38 46.4142 278.58C46.2302 278.78 46.1382 279.032 46.1382 279.336C46.1382 279.64 46.2302 279.892 46.4142 280.092C46.5982 280.292 46.8382 280.392 47.1342 280.392C47.4142 280.392 47.6502 280.292 47.8422 280.092C48.0342 279.892 48.1302 279.64 48.1302 279.336ZM49.8702 283.62C49.8702 283.068 50.0622 282.604 50.4462 282.228C50.8382 281.852 51.3102 281.664 51.8622 281.664C52.4142 281.664 52.8862 281.852 53.2782 282.228C53.6702 282.604 53.8662 283.068 53.8662 283.62C53.8662 284.156 53.6702 284.616 53.2782 285C52.8862 285.376 52.4142 285.564 51.8622 285.564C51.3102 285.564 50.8382 285.376 50.4462 285C50.0622 284.616 49.8702 284.156 49.8702 283.62ZM52.8582 283.62C52.8582 283.316 52.7622 283.064 52.5702 282.864C52.3862 282.664 52.1542 282.564 51.8742 282.564C51.5782 282.564 51.3382 282.664 51.1542 282.864C50.9702 283.056 50.8782 283.308 50.8782 283.62C50.8782 283.924 50.9702 284.176 51.1542 284.376C51.3382 284.568 51.5782 284.664 51.8742 284.664C52.1542 284.664 52.3862 284.564 52.5702 284.364C52.7622 284.164 52.8582 283.916 52.8582 283.62Z" fill="#8F8F8F"/>
<path d="M33.0279 325.61H36.3759V326.714H30.6999V326.426L33.5199 323.39C33.9759 322.91 34.2999 322.51 34.4919 322.19C34.6839 321.87 34.7799 321.546 34.7799 321.218C34.7799 320.81 34.6599 320.478 34.4199 320.222C34.1799 319.958 33.8599 319.826 33.4599 319.826C33.0599 319.826 32.7359 319.962 32.4879 320.234C32.2399 320.506 32.1159 320.85 32.1159 321.266C32.1159 321.41 32.1359 321.614 32.1759 321.878H30.8919C30.8359 321.678 30.8079 321.45 30.8079 321.194C30.8079 320.514 31.0559 319.922 31.5519 319.418C32.0479 318.914 32.6879 318.662 33.4719 318.662C34.2239 318.662 34.8479 318.898 35.3439 319.37C35.8479 319.842 36.0999 320.426 36.0999 321.122C36.0999 321.666 35.9559 322.158 35.6679 322.598C35.4119 323.006 34.9959 323.518 34.4199 324.134L33.0279 325.61ZM37.7471 322.682C37.7471 321.474 38.0031 320.506 38.5151 319.778C39.0271 319.034 39.7791 318.662 40.7711 318.662C41.7631 318.662 42.5111 319.03 43.0151 319.766C43.5271 320.494 43.7831 321.466 43.7831 322.682C43.7831 323.914 43.5231 324.918 43.0031 325.694C42.4911 326.462 41.7471 326.846 40.7711 326.846C39.7951 326.846 39.0471 326.458 38.5271 325.682C38.0071 324.906 37.7471 323.906 37.7471 322.682ZM42.4631 322.694C42.4631 320.782 41.8991 319.826 40.7711 319.826C39.6351 319.826 39.0671 320.782 39.0671 322.694C39.0671 324.686 39.6351 325.682 40.7711 325.682C41.8991 325.682 42.4631 324.686 42.4631 322.694ZM45.2471 320.606C45.2471 320.07 45.4431 319.614 45.8351 319.238C46.2271 318.854 46.7031 318.662 47.2631 318.662C47.8071 318.662 48.2751 318.854 48.6671 319.238C49.0591 319.614 49.2551 320.07 49.2551 320.606C49.2551 321.15 49.0591 321.614 48.6671 321.998C48.2751 322.374 47.8071 322.562 47.2631 322.562C46.7031 322.562 46.2271 322.374 45.8351 321.998C45.4431 321.622 45.2471 321.158 45.2471 320.606ZM46.8311 326.714L51.3671 318.794H52.4351L47.8871 326.714H46.8311ZM48.2591 320.606C48.2591 320.31 48.1631 320.062 47.9711 319.862C47.7791 319.654 47.5431 319.55 47.2631 319.55C46.9751 319.55 46.7351 319.65 46.5431 319.85C46.3591 320.05 46.2671 320.302 46.2671 320.606C46.2671 320.91 46.3591 321.162 46.5431 321.362C46.7271 321.562 46.9671 321.662 47.2631 321.662C47.5431 321.662 47.7791 321.562 47.9711 321.362C48.1631 321.162 48.2591 320.91 48.2591 320.606ZM49.9991 324.89C49.9991 324.338 50.1911 323.874 50.5751 323.498C50.9671 323.122 51.4391 322.934 51.9911 322.934C52.5431 322.934 53.0151 323.122 53.4071 323.498C53.7991 323.874 53.9951 324.338 53.9951 324.89C53.9951 325.426 53.7991 325.886 53.4071 326.27C53.0151 326.646 52.5431 326.834 51.9911 326.834C51.4391 326.834 50.9671 326.646 50.5751 326.27C50.1911 325.886 49.9991 325.426 49.9991 324.89ZM52.9871 324.89C52.9871 324.586 52.8911 324.334 52.6991 324.134C52.5151 323.934 52.2831 323.834 52.0031 323.834C51.7071 323.834 51.4671 323.934 51.2831 324.134C51.0991 324.326 51.0071 324.578 51.0071 324.89C51.0071 325.194 51.0991 325.446 51.2831 325.646C51.4671 325.838 51.7071 325.934 52.0031 325.934C52.2831 325.934 52.5151 325.834 52.6991 325.634C52.8911 325.434 52.9871 325.186 52.9871 324.89Z" fill="#8F8F8F"/>
<path d="M30.6879 42.4449L32.3619 41.1849C33.2019 42.3369 34.1739 42.9129 35.2779 42.9129C35.8059 42.9129 36.2199 42.7989 36.5199 42.5709C36.8199 42.3309 36.9699 42.0069 36.9699 41.5989C36.9699 41.2629 36.8679 41.0049 36.6639 40.8249C36.4599 40.6329 36.0579 40.3989 35.4579 40.1229L34.1799 39.5469C32.2599 38.6949 31.2999 37.5549 31.2999 36.1269C31.2999 35.1189 31.6719 34.3089 32.4159 33.6969C33.1599 33.0729 34.1019 32.7609 35.2419 32.7609C36.1299 32.7609 36.9099 32.9649 37.5819 33.3729C38.2539 33.7689 38.7819 34.3149 39.166 35.0109L37.5099 36.2889C36.8979 35.3769 36.1419 34.9209 35.2419 34.9209C34.8099 34.9209 34.4559 35.0229 34.1799 35.2269C33.9039 35.4309 33.7659 35.7129 33.7659 36.0729C33.7659 36.3729 33.8619 36.6189 34.0539 36.8109C34.2579 36.9909 34.6239 37.2009 35.1519 37.4409L36.5019 38.0349C37.5219 38.4909 38.2659 38.9889 38.7339 39.5289C39.2019 40.0569 39.4359 40.7169 39.4359 41.5089C39.4359 42.5769 39.0459 43.4409 38.2659 44.1009C37.4859 44.7489 36.4899 45.0729 35.2779 45.0729C34.2819 45.0729 33.3819 44.8389 32.5779 44.3709C31.7859 43.9029 31.1559 43.2609 30.6879 42.4449ZM47.0447 42.8229V44.8569C46.4687 45.0009 45.9107 45.0729 45.3707 45.0729C44.2307 45.0729 43.3487 44.7909 42.7247 44.2269C42.1127 43.6629 41.8067 42.8289 41.8067 41.7249V37.9989H40.4027V35.9469H41.8067V33.6969H44.2367V35.9469H46.7567V37.9989H44.2367V41.5089C44.2367 42.0129 44.3627 42.3729 44.6147 42.5889C44.8787 42.7929 45.3047 42.8949 45.8927 42.8949C46.0967 42.8949 46.4807 42.8709 47.0447 42.8229ZM56.279 39.5649V44.8569H54.047V43.9929C53.351 44.7129 52.445 45.0729 51.329 45.0729C50.393 45.0729 49.643 44.8269 49.079 44.3349C48.527 43.8429 48.251 43.2009 48.251 42.4089C48.251 41.6049 48.551 40.9749 49.151 40.5189C49.763 40.0509 50.585 39.8169 51.617 39.8169H53.849V39.4209C53.849 38.9169 53.705 38.5329 53.417 38.2689C53.141 37.9929 52.733 37.8549 52.193 37.8549C51.749 37.8549 51.347 37.9509 50.987 38.1429C50.627 38.3349 50.243 38.6469 49.835 39.0789L48.575 37.5849C49.607 36.3609 50.903 35.7489 52.463 35.7489C53.639 35.7489 54.569 36.0849 55.253 36.7569C55.937 37.4169 56.279 38.3529 56.279 39.5649ZM53.849 41.5269V41.4189H51.941C51.113 41.4189 50.699 41.7189 50.699 42.3189C50.699 42.6189 50.813 42.8589 51.041 43.0389C51.281 43.2069 51.593 43.2909 51.977 43.2909C52.517 43.2909 52.961 43.1289 53.309 42.8049C53.669 42.4689 53.849 42.0429 53.849 41.5269ZM64.3416 42.8229V44.8569C63.7656 45.0009 63.2076 45.0729 62.6676 45.0729C61.5276 45.0729 60.6456 44.7909 60.0216 44.2269C59.4096 43.6629 59.1036 42.8289 59.1036 41.7249V37.9989H57.6996V35.9469H59.1036V33.6969H61.5336V35.9469H64.0536V37.9989H61.5336V41.5089C61.5336 42.0129 61.6596 42.3729 61.9116 42.5889C62.1756 42.7929 62.6016 42.8949 63.1896 42.8949C63.3936 42.8949 63.7776 42.8709 64.3416 42.8229ZM66.1059 44.8569V35.9469H68.5359V44.8569H66.1059ZM65.7639 32.7069C65.7639 32.2749 65.9139 31.9149 66.2139 31.6269C66.5139 31.3389 66.8799 31.1949 67.3119 31.1949C67.7439 31.1949 68.1099 31.3389 68.4099 31.6269C68.7219 31.9149 68.8779 32.2749 68.8779 32.7069C68.8779 33.1269 68.7219 33.4809 68.4099 33.7689C68.1099 34.0569 67.7439 34.2009 67.3119 34.2009C66.8799 34.2009 66.5139 34.0569 66.2139 33.7689C65.9139 33.4809 65.7639 33.1269 65.7639 32.7069ZM70.1299 43.3449L71.3539 41.8689C72.1219 42.6729 72.9559 43.0749 73.8559 43.0749C74.1919 43.0749 74.4619 43.0149 74.6659 42.8949C74.8819 42.7629 74.9899 42.5769 74.9899 42.3369C74.9899 42.1569 74.9239 42.0189 74.7919 41.9229C74.6719 41.8149 74.4319 41.6829 74.0719 41.5269L73.1179 41.1309C72.2659 40.7829 71.6479 40.4049 71.2639 39.9969C70.8799 39.5769 70.6879 39.0489 70.6879 38.4129C70.6879 37.5849 70.9879 36.9369 71.5879 36.4689C72.1879 35.9889 72.9799 35.7489 73.9639 35.7489C75.2839 35.7489 76.3519 36.1929 77.1679 37.0809L75.9439 38.5749C75.3439 38.0109 74.6779 37.7289 73.9459 37.7289C73.3099 37.7289 72.9919 37.9389 72.9919 38.3589C72.9919 38.5269 73.0579 38.6649 73.1899 38.7729C73.3219 38.8809 73.5679 39.0069 73.9279 39.1509L74.7919 39.5109C75.6799 39.8709 76.3159 40.2549 76.6999 40.6629C77.0959 41.0709 77.2939 41.5929 77.2939 42.2289C77.2939 43.1169 76.9639 43.8129 76.3039 44.3169C75.6559 44.8209 74.8279 45.0729 73.8199 45.0729C72.2239 45.0729 70.9939 44.4969 70.1299 43.3449ZM84.8553 42.8229V44.8569C84.2793 45.0009 83.7213 45.0729 83.1813 45.0729C82.0413 45.0729 81.1593 44.7909 80.5353 44.2269C79.9233 43.6629 79.6173 42.8289 79.6173 41.7249V37.9989H78.2133V35.9469H79.6173V33.6969H82.0473V35.9469H84.5673V37.9989H82.0473V41.5089C82.0473 42.0129 82.1733 42.3729 82.4253 42.5889C82.6893 42.7929 83.1153 42.8949 83.7033 42.8949C83.9073 42.8949 84.2913 42.8709 84.8553 42.8229ZM86.6196 44.8569V35.9469H89.0496V44.8569H86.6196ZM86.2776 32.7069C86.2776 32.2749 86.4276 31.9149 86.7276 31.6269C87.0276 31.3389 87.3936 31.1949 87.8256 31.1949C88.2576 31.1949 88.6236 31.3389 88.9236 31.6269C89.2356 31.9149 89.3916 32.2749 89.3916 32.7069C89.3916 33.1269 89.2356 33.4809 88.9236 33.7689C88.6236 34.0569 88.2576 34.2009 87.8256 34.2009C87.3936 34.2009 87.0276 34.0569 86.7276 33.7689C86.4276 33.4809 86.2776 33.1269 86.2776 32.7069ZM90.9496 40.3929C90.9496 39.0969 91.4116 37.9989 92.3356 37.0989C93.2596 36.1989 94.3876 35.7489 95.7196 35.7489C97.4716 35.7489 98.7616 36.4809 99.5896 37.9449L97.8976 39.2589C97.2976 38.3949 96.5836 37.9629 95.7556 37.9629C95.0716 37.9629 94.5076 38.1969 94.0636 38.6649C93.6316 39.1209 93.4156 39.6969 93.4156 40.3929C93.4156 41.1009 93.6316 41.6889 94.0636 42.1569C94.5076 42.6129 95.0716 42.8409 95.7556 42.8409C96.5836 42.8409 97.2976 42.4149 97.8976 41.5629L99.5896 42.8589C99.1936 43.5549 98.6596 44.1009 97.9876 44.4969C97.3276 44.8809 96.5716 45.0729 95.7196 45.0729C94.4116 45.0969 93.2836 44.6469 92.3356 43.7229C91.3876 42.7869 90.9256 41.6769 90.9496 40.3929ZM100.575 43.3449L101.799 41.8689C102.567 42.6729 103.401 43.0749 104.301 43.0749C104.637 43.0749 104.907 43.0149 105.111 42.8949C105.327 42.7629 105.435 42.5769 105.435 42.3369C105.435 42.1569 105.369 42.0189 105.237 41.9229C105.117 41.8149 104.877 41.6829 104.517 41.5269L103.563 41.1309C102.711 40.7829 102.093 40.4049 101.709 39.9969C101.325 39.5769 101.133 39.0489 101.133 38.4129C101.133 37.5849 101.433 36.9369 102.033 36.4689C102.633 35.9889 103.425 35.7489 104.409 35.7489C105.729 35.7489 106.797 36.1929 107.613 37.0809L106.389 38.5749C105.789 38.0109 105.123 37.7289 104.391 37.7289C103.755 37.7289 103.437 37.9389 103.437 38.3589C103.437 38.5269 103.503 38.6649 103.635 38.7729C103.767 38.8809 104.013 39.0069 104.373 39.1509L105.237 39.5109C106.125 39.8709 106.761 40.2549 107.145 40.6629C107.541 41.0709 107.739 41.5929 107.739 42.2289C107.739 43.1169 107.409 43.8129 106.749 44.3169C106.101 44.8209 105.273 45.0729 104.265 45.0729C102.669 45.0729 101.439 44.4969 100.575 43.3449ZM114.118 40.3929C114.094 39.1209 114.556 38.0229 115.504 37.0989C116.452 36.1749 117.58 35.7249 118.888 35.7489C120.196 35.7249 121.324 36.1749 122.272 37.0989C123.232 38.0229 123.7 39.1209 123.676 40.3929C123.7 41.6649 123.232 42.7689 122.272 43.7049C121.312 44.6289 120.178 45.0789 118.87 45.0549C117.562 45.0789 116.434 44.6289 115.486 43.7049C114.55 42.7689 114.094 41.6649 114.118 40.3929ZM120.526 42.1389C120.97 41.6829 121.192 41.1069 121.192 40.4109C121.192 39.7149 120.97 39.1329 120.526 38.6649C120.094 38.1969 119.548 37.9629 118.888 37.9629C118.216 37.9629 117.664 38.1969 117.232 38.6649C116.8 39.1209 116.584 39.7029 116.584 40.4109C116.584 41.1069 116.8 41.6829 117.232 42.1389C117.664 42.5949 118.216 42.8229 118.888 42.8229C119.548 42.8229 120.094 42.5949 120.526 42.1389ZM128.417 34.7049V35.9469H130.379V37.9989H128.417V44.8569H125.987V37.9989H124.727V35.9469H125.987V34.4889C125.987 33.3849 126.287 32.5509 126.887 31.9869C127.487 31.4229 128.333 31.1409 129.425 31.1409C129.881 31.1409 130.325 31.2069 130.757 31.3389V33.3729C130.493 33.3369 130.253 33.3189 130.037 33.3189C129.473 33.3189 129.059 33.4269 128.795 33.6429C128.543 33.8589 128.417 34.2129 128.417 34.7049ZM143.695 39.5649V44.8569H141.463V43.9929C140.767 44.7129 139.861 45.0729 138.745 45.0729C137.809 45.0729 137.059 44.8269 136.495 44.3349C135.943 43.8429 135.667 43.2009 135.667 42.4089C135.667 41.6049 135.967 40.9749 136.567 40.5189C137.179 40.0509 138.001 39.8169 139.033 39.8169H141.265V39.4209C141.265 38.9169 141.121 38.5329 140.833 38.2689C140.557 37.9929 140.149 37.8549 139.609 37.8549C139.165 37.8549 138.763 37.9509 138.403 38.1429C138.043 38.3349 137.659 38.6469 137.251 39.0789L135.991 37.5849C137.023 36.3609 138.319 35.7489 139.879 35.7489C141.055 35.7489 141.985 36.0849 142.669 36.7569C143.353 37.4169 143.695 38.3529 143.695 39.5649ZM141.265 41.5269V41.4189H139.357C138.529 41.4189 138.115 41.7189 138.115 42.3189C138.115 42.6189 138.229 42.8589 138.457 43.0389C138.697 43.2069 139.009 43.2909 139.393 43.2909C139.933 43.2909 140.377 43.1289 140.725 42.8049C141.085 42.4689 141.265 42.0429 141.265 41.5269ZM145.53 40.3929C145.53 39.0969 145.992 37.9989 146.916 37.0989C147.84 36.1989 148.968 35.7489 150.3 35.7489C152.052 35.7489 153.342 36.4809 154.17 37.9449L152.478 39.2589C151.878 38.3949 151.164 37.9629 150.336 37.9629C149.652 37.9629 149.088 38.1969 148.644 38.6649C148.212 39.1209 147.996 39.6969 147.996 40.3929C147.996 41.1009 148.212 41.6889 148.644 42.1569C149.088 42.6129 149.652 42.8409 150.336 42.8409C151.164 42.8409 151.878 42.4149 152.478 41.5629L154.17 42.8589C153.774 43.5549 153.24 44.1009 152.568 44.4969C151.908 44.8809 151.152 45.0729 150.3 45.0729C148.992 45.0969 147.864 44.6469 146.916 43.7229C145.968 42.7869 145.506 41.6769 145.53 40.3929ZM161.689 42.8229V44.8569C161.113 45.0009 160.555 45.0729 160.015 45.0729C158.875 45.0729 157.993 44.7909 157.369 44.2269C156.757 43.6629 156.451 42.8289 156.451 41.7249V37.9989H155.047V35.9469H156.451V33.6969H158.881V35.9469H161.401V37.9989H158.881V41.5089C158.881 42.0129 159.007 42.3729 159.259 42.5889C159.523 42.7929 159.949 42.8949 160.537 42.8949C160.741 42.8949 161.125 42.8709 161.689 42.8229ZM163.454 44.8569V35.9469H165.884V44.8569H163.454ZM163.112 32.7069C163.112 32.2749 163.262 31.9149 163.562 31.6269C163.862 31.3389 164.228 31.1949 164.66 31.1949C165.092 31.1949 165.458 31.3389 165.758 31.6269C166.07 31.9149 166.226 32.2749 166.226 32.7069C166.226 33.1269 166.07 33.4809 165.758 33.7689C165.458 34.0569 165.092 34.2009 164.66 34.2009C164.228 34.2009 163.862 34.0569 163.562 33.7689C163.262 33.4809 163.112 33.1269 163.112 32.7069ZM174.354 35.9469H176.928L172.518 45.0729H171.708L167.298 35.9469H169.854L172.104 40.9869L174.354 35.9469ZM186.181 41.2209H179.935C180.079 41.7849 180.367 42.2229 180.799 42.5349C181.243 42.8349 181.789 42.9849 182.437 42.9849C183.313 42.9849 184.141 42.6849 184.921 42.0849L185.929 43.7409C184.861 44.6289 183.673 45.0729 182.365 45.0729C180.997 45.0969 179.833 44.6529 178.873 43.7409C177.925 42.8169 177.463 41.7069 177.487 40.4109C177.463 39.1269 177.913 38.0229 178.837 37.0989C179.761 36.1749 180.865 35.7249 182.149 35.7489C183.373 35.7489 184.375 36.1449 185.155 36.9369C185.947 37.7289 186.343 38.7129 186.343 39.8889C186.343 40.3209 186.289 40.7649 186.181 41.2209ZM179.935 39.5109H183.985C183.973 38.9709 183.781 38.5389 183.409 38.2149C183.049 37.8789 182.599 37.7109 182.059 37.7109C181.543 37.7109 181.093 37.8729 180.709 38.1969C180.325 38.5209 180.067 38.9589 179.935 39.5109ZM200.217 44.8569L199.551 43.3089H194.691L194.025 44.8569H191.415L196.725 32.7609H197.535L202.827 44.8569H200.217ZM198.705 41.3109L197.121 37.2969L195.537 41.3109H198.705ZM212.46 37.0809C213.288 37.9569 213.702 39.0609 213.702 40.3929C213.702 41.7249 213.288 42.8409 212.46 43.7409C211.644 44.6289 210.618 45.0729 209.382 45.0729C208.266 45.0729 207.378 44.7129 206.718 43.9929V48.0969H204.288V35.9469H206.52V37.0629C207.132 36.1869 208.086 35.7489 209.382 35.7489C210.618 35.7489 211.644 36.1929 212.46 37.0809ZM211.236 40.4109C211.236 39.6789 211.02 39.0849 210.588 38.6289C210.156 38.1729 209.604 37.9449 208.932 37.9449C208.284 37.9449 207.744 38.1609 207.312 38.5929C206.892 39.0249 206.682 39.6249 206.682 40.3929C206.682 41.1609 206.892 41.7669 207.312 42.2109C207.744 42.6429 208.284 42.8589 208.932 42.8589C209.592 42.8589 210.138 42.6309 210.57 42.1749C211.014 41.7189 211.236 41.1309 211.236 40.4109ZM223.78 37.0809C224.608 37.9569 225.022 39.0609 225.022 40.3929C225.022 41.7249 224.608 42.8409 223.78 43.7409C222.964 44.6289 221.938 45.0729 220.702 45.0729C219.586 45.0729 218.698 44.7129 218.038 43.9929V48.0969H215.608V35.9469H217.84V37.0629C218.452 36.1869 219.406 35.7489 220.702 35.7489C221.938 35.7489 222.964 36.1929 223.78 37.0809ZM222.556 40.4109C222.556 39.6789 222.34 39.0849 221.908 38.6289C221.476 38.1729 220.924 37.9449 220.252 37.9449C219.604 37.9449 219.064 38.1609 218.632 38.5929C218.212 39.0249 218.002 39.6249 218.002 40.3929C218.002 41.1609 218.212 41.7669 218.632 42.2109C219.064 42.6429 219.604 42.8589 220.252 42.8589C220.912 42.8589 221.458 42.6309 221.89 42.1749C222.334 41.7189 222.556 41.1309 222.556 40.4109ZM226.928 44.8569V31.3569H229.358V44.8569H226.928ZM231.762 44.8569V35.9469H234.192V44.8569H231.762ZM231.42 32.7069C231.42 32.2749 231.57 31.9149 231.87 31.6269C232.17 31.3389 232.536 31.1949 232.968 31.1949C233.4 31.1949 233.766 31.3389 234.066 31.6269C234.378 31.9149 234.534 32.2749 234.534 32.7069C234.534 33.1269 234.378 33.4809 234.066 33.7689C233.766 34.0569 233.4 34.2009 232.968 34.2009C232.536 34.2009 232.17 34.0569 231.87 33.7689C231.57 33.4809 231.42 33.1269 231.42 32.7069ZM236.092 40.3929C236.092 39.0969 236.554 37.9989 237.478 37.0989C238.402 36.1989 239.53 35.7489 240.862 35.7489C242.614 35.7489 243.904 36.4809 244.732 37.9449L243.04 39.2589C242.44 38.3949 241.726 37.9629 240.898 37.9629C240.214 37.9629 239.65 38.1969 239.206 38.6649C238.774 39.1209 238.558 39.6969 238.558 40.3929C238.558 41.1009 238.774 41.6889 239.206 42.1569C239.65 42.6129 240.214 42.8409 240.898 42.8409C241.726 42.8409 242.44 42.4149 243.04 41.5629L244.732 42.8589C244.336 43.5549 243.802 44.1009 243.13 44.4969C242.47 44.8809 241.714 45.0729 240.862 45.0729C239.554 45.0969 238.426 44.6469 237.478 43.7229C236.53 42.7869 236.068 41.6769 236.092 40.3929ZM253.998 39.5649V44.8569H251.766V43.9929C251.07 44.7129 250.164 45.0729 249.048 45.0729C248.112 45.0729 247.362 44.8269 246.798 44.3349C246.246 43.8429 245.97 43.2009 245.97 42.4089C245.97 41.6049 246.27 40.9749 246.87 40.5189C247.482 40.0509 248.304 39.8169 249.336 39.8169H251.568V39.4209C251.568 38.9169 251.424 38.5329 251.136 38.2689C250.86 37.9929 250.452 37.8549 249.912 37.8549C249.468 37.8549 249.066 37.9509 248.706 38.1429C248.346 38.3349 247.962 38.6469 247.554 39.0789L246.294 37.5849C247.326 36.3609 248.622 35.7489 250.182 35.7489C251.358 35.7489 252.288 36.0849 252.972 36.7569C253.656 37.4169 253.998 38.3529 253.998 39.5649ZM251.568 41.5269V41.4189H249.66C248.832 41.4189 248.418 41.7189 248.418 42.3189C248.418 42.6189 248.532 42.8589 248.76 43.0389C249 43.2069 249.312 43.2909 249.696 43.2909C250.236 43.2909 250.68 43.1289 251.028 42.8049C251.388 42.4689 251.568 42.0429 251.568 41.5269ZM262.06 42.8229V44.8569C261.484 45.0009 260.926 45.0729 260.386 45.0729C259.246 45.0729 258.364 44.7909 257.74 44.2269C257.128 43.6629 256.822 42.8289 256.822 41.7249V37.9989H255.418V35.9469H256.822V33.6969H259.252V35.9469H261.772V37.9989H259.252V41.5089C259.252 42.0129 259.378 42.3729 259.63 42.5889C259.894 42.7929 260.32 42.8949 260.908 42.8949C261.112 42.8949 261.496 42.8709 262.06 42.8229ZM263.825 44.8569V35.9469H266.255V44.8569H263.825ZM263.483 32.7069C263.483 32.2749 263.633 31.9149 263.933 31.6269C264.233 31.3389 264.599 31.1949 265.031 31.1949C265.463 31.1949 265.829 31.3389 266.129 31.6269C266.441 31.9149 266.597 32.2749 266.597 32.7069C266.597 33.1269 266.441 33.4809 266.129 33.7689C265.829 34.0569 265.463 34.2009 265.031 34.2009C264.599 34.2009 264.233 34.0569 263.933 33.7689C263.633 33.4809 263.483 33.1269 263.483 32.7069ZM268.155 40.3929C268.131 39.1209 268.593 38.0229 269.541 37.0989C270.489 36.1749 271.617 35.7249 272.925 35.7489C274.233 35.7249 275.361 36.1749 276.309 37.0989C277.269 38.0229 277.737 39.1209 277.713 40.3929C277.737 41.6649 277.269 42.7689 276.309 43.7049C275.349 44.6289 274.215 45.0789 272.907 45.0549C271.599 45.0789 270.471 44.6289 269.523 43.7049C268.587 42.7689 268.131 41.6649 268.155 40.3929ZM274.563 42.1389C275.007 41.6829 275.229 41.1069 275.229 40.4109C275.229 39.7149 275.007 39.1329 274.563 38.6649C274.131 38.1969 273.585 37.9629 272.925 37.9629C272.253 37.9629 271.701 38.1969 271.269 38.6649C270.837 39.1209 270.621 39.7029 270.621 40.4109C270.621 41.1069 270.837 41.6829 271.269 42.1389C271.701 42.5949 272.253 42.8229 272.925 42.8229C273.585 42.8229 274.131 42.5949 274.563 42.1389ZM287.8 39.3309V44.8569H285.388V39.6549C285.388 39.1389 285.232 38.7249 284.92 38.4129C284.62 38.0889 284.224 37.9269 283.732 37.9269C283.24 37.9269 282.832 38.0889 282.508 38.4129C282.196 38.7249 282.04 39.1389 282.04 39.6549V44.8569H279.61V35.9469H281.842V36.7569C282.514 36.0849 283.384 35.7489 284.452 35.7489C285.484 35.7489 286.3 36.0729 286.9 36.7209C287.5 37.3689 287.8 38.2389 287.8 39.3309ZM289.329 43.3449L290.553 41.8689C291.321 42.6729 292.155 43.0749 293.055 43.0749C293.391 43.0749 293.661 43.0149 293.865 42.8949C294.081 42.7629 294.189 42.5769 294.189 42.3369C294.189 42.1569 294.123 42.0189 293.991 41.9229C293.871 41.8149 293.631 41.6829 293.271 41.5269L292.317 41.1309C291.465 40.7829 290.847 40.4049 290.463 39.9969C290.079 39.5769 289.887 39.0489 289.887 38.4129C289.887 37.5849 290.187 36.9369 290.787 36.4689C291.387 35.9889 292.179 35.7489 293.163 35.7489C294.483 35.7489 295.551 36.1929 296.367 37.0809L295.143 38.5749C294.543 38.0109 293.877 37.7289 293.145 37.7289C292.509 37.7289 292.191 37.9389 292.191 38.3589C292.191 38.5269 292.257 38.6649 292.389 38.7729C292.521 38.8809 292.767 39.0069 293.127 39.1509L293.991 39.5109C294.879 39.8709 295.515 40.2549 295.899 40.6629C296.295 41.0709 296.493 41.5929 296.493 42.2289C296.493 43.1169 296.163 43.8129 295.503 44.3169C294.855 44.8209 294.027 45.0729 293.019 45.0729C291.423 45.0729 290.193 44.4969 289.329 43.3449Z" fill="#333333"/>
<rect x="366.802" y="33.7222" width="22" height="12" rx="6" fill="#56CCF2"/>
<rect x="377.802" y="34.7222" width="10" height="10" rx="5" fill="white"/>
<path d="M399.114 43.2222L398.55 41.9022H394.986L394.422 43.2222H393.066L396.558 35.1702H396.99L400.482 43.2222H399.114ZM398.094 40.8102L396.774 37.5342L395.442 40.8102H398.094ZM407.78 40.2702C407.78 41.1502 407.504 41.8862 406.952 42.4782C406.408 43.0622 405.72 43.3542 404.888 43.3542C404.072 43.3542 403.416 43.0702 402.92 42.5022V45.3822H401.66V37.3302H402.836V38.1582C403.284 37.5182 403.968 37.1982 404.888 37.1982C405.72 37.1982 406.408 37.4942 406.952 38.0862C407.504 38.6702 407.78 39.3982 407.78 40.2702ZM405.968 41.6622C406.312 41.3022 406.484 40.8422 406.484 40.2822C406.484 39.7222 406.312 39.2622 405.968 38.9022C405.624 38.5342 405.196 38.3502 404.684 38.3502C404.188 38.3502 403.768 38.5182 403.424 38.8542C403.08 39.1902 402.908 39.6622 402.908 40.2702C402.908 40.8862 403.08 41.3622 403.424 41.6982C403.768 42.0342 404.188 42.2022 404.684 42.2022C405.196 42.2022 405.624 42.0222 405.968 41.6622ZM415.35 40.2702C415.35 41.1502 415.074 41.8862 414.522 42.4782C413.978 43.0622 413.29 43.3542 412.458 43.3542C411.642 43.3542 410.986 43.0702 410.49 42.5022V45.3822H409.23V37.3302H410.406V38.1582C410.854 37.5182 411.538 37.1982 412.458 37.1982C413.29 37.1982 413.978 37.4942 414.522 38.0862C415.074 38.6702 415.35 39.3982 415.35 40.2702ZM413.538 41.6622C413.882 41.3022 414.054 40.8422 414.054 40.2822C414.054 39.7222 413.882 39.2622 413.538 38.9022C413.194 38.5342 412.766 38.3502 412.254 38.3502C411.758 38.3502 411.338 38.5182 410.994 38.8542C410.65 39.1902 410.478 39.6622 410.478 40.2702C410.478 40.8862 410.65 41.3622 410.994 41.6982C411.338 42.0342 411.758 42.2022 412.254 42.2022C412.766 42.2022 413.194 42.0222 413.538 41.6622ZM416.8 43.2222V34.2222H418.06V43.2222H416.8ZM419.882 43.2222V37.3302H421.142V43.2222H419.882ZM419.906 35.7222C419.738 35.5622 419.654 35.3662 419.654 35.1342C419.654 34.9022 419.738 34.7062 419.906 34.5462C420.074 34.3782 420.278 34.2942 420.518 34.2942C420.75 34.2942 420.95 34.3782 421.118 34.5462C421.286 34.7062 421.37 34.9022 421.37 35.1342C421.37 35.3662 421.286 35.5622 421.118 35.7222C420.95 35.8822 420.75 35.9622 420.518 35.9622C420.278 35.9622 420.074 35.8822 419.906 35.7222ZM422.592 40.2702C422.576 39.4302 422.88 38.7062 423.504 38.0982C424.128 37.4822 424.864 37.1822 425.712 37.1982C426.816 37.1982 427.644 37.6542 428.196 38.5662L427.308 39.2622C426.892 38.6622 426.364 38.3622 425.724 38.3622C425.196 38.3622 424.756 38.5462 424.404 38.9142C424.052 39.2822 423.876 39.7342 423.876 40.2702C423.876 40.8142 424.052 41.2702 424.404 41.6382C424.756 42.0062 425.196 42.1902 425.724 42.1902C426.348 42.1902 426.876 41.8942 427.308 41.3022L428.196 41.9862C427.932 42.4182 427.584 42.7542 427.152 42.9942C426.72 43.2342 426.24 43.3542 425.712 43.3542C424.84 43.3542 424.1 43.0542 423.492 42.4542C422.892 41.8542 422.592 41.1262 422.592 40.2702ZM434.265 39.6582V43.2222H433.089V42.5622C432.649 43.0902 432.021 43.3542 431.205 43.3542C430.589 43.3542 430.093 43.1982 429.717 42.8862C429.341 42.5742 429.153 42.1622 429.153 41.6502C429.153 41.1382 429.349 40.7302 429.741 40.4262C430.133 40.1222 430.661 39.9702 431.325 39.9702H432.993V39.5862C432.993 39.1782 432.881 38.8662 432.657 38.6502C432.441 38.4342 432.133 38.3262 431.733 38.3262C431.133 38.3262 430.589 38.6182 430.101 39.2022L429.369 38.4582C429.945 37.6182 430.773 37.1982 431.853 37.1982C432.589 37.1982 433.173 37.4142 433.605 37.8462C434.045 38.2782 434.265 38.8822 434.265 39.6582ZM432.993 40.9902V40.8822H431.481C430.785 40.8822 430.437 41.1222 430.437 41.6022C430.437 41.8422 430.529 42.0342 430.713 42.1782C430.905 42.3142 431.157 42.3822 431.469 42.3822C431.901 42.3822 432.261 42.2502 432.549 41.9862C432.845 41.7222 432.993 41.3902 432.993 40.9902ZM439.523 42.1542V43.2222C439.107 43.3102 438.759 43.3542 438.479 43.3542C437.791 43.3542 437.255 43.1822 436.871 42.8382C436.495 42.4942 436.307 41.9822 436.307 41.3022V38.4222H435.347V37.3302H436.307V35.7822H437.579V37.3302H439.331V38.4222H437.579V41.1942C437.579 41.5622 437.671 41.8262 437.855 41.9862C438.047 42.1382 438.343 42.2142 438.743 42.2142C438.879 42.2142 439.139 42.1942 439.523 42.1542ZM440.8 43.2222V37.3302H442.06V43.2222H440.8ZM440.824 35.7222C440.656 35.5622 440.572 35.3662 440.572 35.1342C440.572 34.9022 440.656 34.7062 440.824 34.5462C440.992 34.3782 441.196 34.2942 441.436 34.2942C441.668 34.2942 441.868 34.3782 442.036 34.5462C442.204 34.7062 442.288 34.9022 442.288 35.1342C442.288 35.3662 442.204 35.5622 442.036 35.7222C441.868 35.8822 441.668 35.9622 441.436 35.9622C441.196 35.9622 440.992 35.8822 440.824 35.7222ZM443.51 40.2702C443.494 39.4302 443.794 38.7062 444.41 38.0982C445.034 37.4822 445.77 37.1822 446.618 37.1982C447.474 37.1822 448.214 37.4822 448.838 38.0982C449.462 38.7142 449.766 39.4382 449.75 40.2702C449.766 41.1102 449.462 41.8382 448.838 42.4542C448.214 43.0702 447.474 43.3702 446.618 43.3542C445.77 43.3702 445.034 43.0702 444.41 42.4542C443.794 41.8302 443.494 41.1022 443.51 40.2702ZM448.454 40.2822C448.454 39.7382 448.278 39.2822 447.926 38.9142C447.574 38.5382 447.142 38.3502 446.63 38.3502C446.11 38.3502 445.674 38.5382 445.322 38.9142C444.97 39.2822 444.794 39.7382 444.794 40.2822C444.794 40.8262 444.966 41.2822 445.31 41.6502C445.662 42.0102 446.098 42.1902 446.618 42.1902C447.138 42.1902 447.574 42.0062 447.926 41.6382C448.278 41.2702 448.454 40.8182 448.454 40.2822ZM456.343 39.5382V43.2222H455.083V39.7062C455.083 39.2982 454.963 38.9702 454.723 38.7222C454.491 38.4662 454.183 38.3382 453.799 38.3382C453.407 38.3382 453.083 38.4662 452.827 38.7222C452.579 38.9782 452.455 39.3062 452.455 39.7062V43.2222H451.195V37.3302H452.371V37.9062C452.819 37.4342 453.407 37.1982 454.135 37.1982C454.815 37.1982 455.351 37.4102 455.743 37.8342C456.143 38.2582 456.343 38.8262 456.343 39.5382ZM457.545 42.2142L458.265 41.4222C458.801 41.9822 459.353 42.2622 459.921 42.2622C460.201 42.2622 460.429 42.2062 460.605 42.0942C460.781 41.9742 460.869 41.8102 460.869 41.6022C460.869 41.4422 460.809 41.3142 460.689 41.2182C460.569 41.1142 460.353 40.9982 460.041 40.8702L459.441 40.6182C458.905 40.3942 458.513 40.1542 458.265 39.8982C458.025 39.6342 457.905 39.3022 457.905 38.9022C457.905 38.3822 458.097 37.9702 458.481 37.6662C458.873 37.3542 459.373 37.1982 459.981 37.1982C460.829 37.1982 461.509 37.5022 462.021 38.1102L461.337 38.8902C460.953 38.4902 460.493 38.2902 459.957 38.2902C459.421 38.2902 459.153 38.4782 459.153 38.8542C459.153 38.9982 459.209 39.1222 459.321 39.2262C459.433 39.3222 459.637 39.4302 459.933 39.5502L460.497 39.7782C461.065 40.0182 461.473 40.2742 461.721 40.5462C461.977 40.8102 462.105 41.1462 462.105 41.5542C462.105 42.1222 461.897 42.5662 461.481 42.8862C461.065 43.1982 460.545 43.3542 459.921 43.3542C458.921 43.3542 458.129 42.9742 457.545 42.2142Z" fill="#333333"/>
<rect x="479.355" y="33.7222" width="22" height="12" rx="6" fill="#FFA600"/>
<rect x="490.355" y="34.7222" width="10" height="10" rx="5" fill="white"/>
<path d="M505.787 41.6382L506.687 40.9542C507.263 41.7942 507.955 42.2142 508.763 42.2142C509.171 42.2142 509.499 42.1142 509.747 41.9142C510.003 41.7142 510.131 41.4462 510.131 41.1102C510.131 40.8382 510.047 40.6262 509.879 40.4742C509.711 40.3142 509.407 40.1302 508.967 39.9222L508.091 39.5142C507.475 39.2342 507.011 38.9262 506.699 38.5902C506.395 38.2462 506.243 37.8222 506.243 37.3182C506.243 36.6862 506.483 36.1702 506.963 35.7702C507.443 35.3702 508.035 35.1702 508.739 35.1702C509.291 35.1702 509.791 35.2982 510.239 35.5542C510.695 35.8102 511.047 36.1542 511.295 36.5862L510.407 37.2702C509.975 36.6302 509.419 36.3102 508.739 36.3102C508.387 36.3102 508.099 36.3942 507.875 36.5622C507.651 36.7302 507.539 36.9662 507.539 37.2702C507.547 37.4142 507.563 37.5342 507.587 37.6302C507.619 37.7182 507.695 37.8142 507.815 37.9182C507.935 38.0142 508.019 38.0742 508.067 38.0982C508.115 38.1222 508.271 38.2022 508.535 38.3382C508.583 38.3622 508.619 38.3822 508.643 38.3982L509.531 38.8062C510.195 39.1102 510.675 39.4342 510.971 39.7782C511.275 40.1222 511.427 40.5502 511.427 41.0622C511.427 41.7422 511.175 42.2942 510.671 42.7182C510.175 43.1422 509.543 43.3542 508.775 43.3542C508.135 43.3542 507.555 43.2022 507.035 42.8982C506.515 42.5942 506.099 42.1742 505.787 41.6382ZM518.119 39.5382V43.2222H516.859V39.7182C516.859 39.3102 516.743 38.9822 516.511 38.7342C516.279 38.4782 515.967 38.3502 515.575 38.3502C515.183 38.3502 514.859 38.4782 514.603 38.7342C514.355 38.9902 514.231 39.3182 514.231 39.7182V43.2222H512.971V34.2222H514.231V37.9182C514.639 37.4382 515.207 37.1982 515.935 37.1982C516.599 37.1982 517.127 37.4142 517.519 37.8462C517.919 38.2702 518.119 38.8342 518.119 39.5382ZM519.501 40.2702C519.485 39.4302 519.785 38.7062 520.401 38.0982C521.025 37.4822 521.761 37.1822 522.609 37.1982C523.465 37.1822 524.205 37.4822 524.829 38.0982C525.453 38.7142 525.757 39.4382 525.741 40.2702C525.757 41.1102 525.453 41.8382 524.829 42.4542C524.205 43.0702 523.465 43.3702 522.609 43.3542C521.761 43.3702 521.025 43.0702 520.401 42.4542C519.785 41.8302 519.485 41.1022 519.501 40.2702ZM524.445 40.2822C524.445 39.7382 524.269 39.2822 523.917 38.9142C523.565 38.5382 523.133 38.3502 522.621 38.3502C522.101 38.3502 521.665 38.5382 521.313 38.9142C520.961 39.2822 520.785 39.7382 520.785 40.2822C520.785 40.8262 520.957 41.2822 521.301 41.6502C521.653 42.0102 522.089 42.1902 522.609 42.1902C523.129 42.1902 523.565 42.0062 523.917 41.6382C524.269 41.2702 524.445 40.8182 524.445 40.2822ZM530.557 37.3302V38.4462H530.173C529.661 38.4462 529.245 38.5902 528.925 38.8782C528.605 39.1662 528.445 39.5662 528.445 40.0782V43.2222H527.185V37.3302H528.361V38.0982C528.801 37.5462 529.373 37.2702 530.077 37.2702C530.237 37.2702 530.397 37.2902 530.557 37.3302ZM535.189 42.1542V43.2222C534.773 43.3102 534.425 43.3542 534.145 43.3542C533.457 43.3542 532.921 43.1822 532.537 42.8382C532.161 42.4942 531.973 41.9822 531.973 41.3022V38.4222H531.013V37.3302H531.973V35.7822H533.245V37.3302H534.997V38.4222H533.245V41.1942C533.245 41.5622 533.337 41.8262 533.521 41.9862C533.713 42.1382 534.009 42.2142 534.409 42.2142C534.545 42.2142 534.805 42.1942 535.189 42.1542ZM536.467 43.2222V34.2222H537.727V43.2222H536.467ZM539.549 43.2222V37.3302H540.809V43.2222H539.549ZM539.573 35.7222C539.405 35.5622 539.321 35.3662 539.321 35.1342C539.321 34.9022 539.405 34.7062 539.573 34.5462C539.741 34.3782 539.945 34.2942 540.185 34.2942C540.417 34.2942 540.617 34.3782 540.785 34.5462C540.953 34.7062 541.037 34.9022 541.037 35.1342C541.037 35.3662 540.953 35.5622 540.785 35.7222C540.617 35.8822 540.417 35.9622 540.185 35.9622C539.945 35.9622 539.741 35.8822 539.573 35.7222ZM542.079 42.2142L542.799 41.4222C543.335 41.9822 543.887 42.2622 544.455 42.2622C544.735 42.2622 544.963 42.2062 545.139 42.0942C545.315 41.9742 545.403 41.8102 545.403 41.6022C545.403 41.4422 545.343 41.3142 545.223 41.2182C545.103 41.1142 544.887 40.9982 544.575 40.8702L543.975 40.6182C543.439 40.3942 543.047 40.1542 542.799 39.8982C542.559 39.6342 542.439 39.3022 542.439 38.9022C542.439 38.3822 542.631 37.9702 543.015 37.6662C543.407 37.3542 543.907 37.1982 544.515 37.1982C545.363 37.1982 546.043 37.5022 546.555 38.1102L545.871 38.8902C545.487 38.4902 545.027 38.2902 544.491 38.2902C543.955 38.2902 543.687 38.4782 543.687 38.8542C543.687 38.9982 543.743 39.1222 543.855 39.2262C543.967 39.3222 544.171 39.4302 544.467 39.5502L545.031 39.7782C545.599 40.0182 546.007 40.2742 546.255 40.5462C546.511 40.8102 546.639 41.1462 546.639 41.5542C546.639 42.1222 546.431 42.5662 546.015 42.8862C545.599 43.1982 545.079 43.3542 544.455 43.3542C543.455 43.3542 542.663 42.9742 542.079 42.2142ZM551.596 42.1542V43.2222C551.18 43.3102 550.832 43.3542 550.552 43.3542C549.864 43.3542 549.328 43.1822 548.944 42.8382C548.568 42.4942 548.38 41.9822 548.38 41.3022V38.4222H547.42V37.3302H548.38V35.7822H549.652V37.3302H551.404V38.4222H549.652V41.1942C549.652 41.5622 549.744 41.8262 549.928 41.9862C550.12 42.1382 550.416 42.2142 550.816 42.2142C550.952 42.2142 551.212 42.1942 551.596 42.1542ZM558.06 40.6902H553.668C553.748 41.1702 553.96 41.5502 554.304 41.8302C554.656 42.1022 555.084 42.2382 555.588 42.2382C556.212 42.2382 556.784 42.0062 557.304 41.5422L557.904 42.4062C557.24 43.0382 556.456 43.3542 555.552 43.3542C554.656 43.3542 553.904 43.0622 553.296 42.4782C552.688 41.8862 552.384 41.1542 552.384 40.2822C552.368 39.4342 552.664 38.7062 553.272 38.0982C553.88 37.4822 554.6 37.1822 555.432 37.1982C556.208 37.1982 556.856 37.4582 557.376 37.9782C557.896 38.4902 558.156 39.1302 558.156 39.8982C558.156 40.1302 558.124 40.3942 558.06 40.6902ZM553.692 39.7062H556.896C556.888 39.2662 556.74 38.9182 556.452 38.6622C556.164 38.3982 555.808 38.2662 555.384 38.2662C554.968 38.2662 554.604 38.3982 554.292 38.6622C553.988 38.9182 553.788 39.2662 553.692 39.7062ZM564.076 34.2222H565.348V43.2222H564.172V42.3822C563.716 43.0302 563.028 43.3542 562.108 43.3542C561.284 43.3542 560.596 43.0622 560.044 42.4782C559.5 41.8862 559.228 41.1542 559.228 40.2822C559.212 39.4182 559.484 38.6862 560.044 38.0862C560.604 37.4782 561.292 37.1822 562.108 37.1982C562.956 37.1982 563.612 37.4822 564.076 38.0502V34.2222ZM563.584 41.6982C563.928 41.3622 564.1 40.8902 564.1 40.2822C564.1 39.6742 563.924 39.2022 563.572 38.8662C563.228 38.5222 562.812 38.3502 562.324 38.3502C561.812 38.3502 561.38 38.5302 561.028 38.8902C560.684 39.2502 560.512 39.7102 560.512 40.2702C560.512 40.8302 560.684 41.2942 561.028 41.6622C561.372 42.0222 561.804 42.2022 562.324 42.2022C562.82 42.2022 563.24 42.0342 563.584 41.6982Z" fill="#333333"/>
<rect x="582.864" y="33.7222" width="22" height="12" rx="6" fill="#FF5630"/>
<rect x="593.864" y="34.7222" width="10" height="10" rx="5" fill="white"/>
<path d="M616.292 43.2222H614.84L612.584 40.1622H611.132V43.2222H609.86V35.3022H612.752C613.552 35.3022 614.2 35.5302 614.696 35.9862C615.192 36.4342 615.44 37.0142 615.44 37.7262C615.44 38.2462 615.304 38.7022 615.032 39.0942C614.768 39.4862 614.396 39.7742 613.916 39.9582L616.292 43.2222ZM611.132 36.4302V39.0342H612.728C613.16 39.0342 613.5 38.9182 613.748 38.6862C614.004 38.4462 614.132 38.1302 614.132 37.7382C614.132 37.3462 614.004 37.0302 613.748 36.7902C613.5 36.5502 613.16 36.4302 612.728 36.4302H611.132ZM622.475 40.6902H618.083C618.163 41.1702 618.375 41.5502 618.719 41.8302C619.071 42.1022 619.499 42.2382 620.003 42.2382C620.627 42.2382 621.199 42.0062 621.719 41.5422L622.319 42.4062C621.655 43.0382 620.871 43.3542 619.967 43.3542C619.071 43.3542 618.319 43.0622 617.711 42.4782C617.103 41.8862 616.799 41.1542 616.799 40.2822C616.783 39.4342 617.079 38.7062 617.687 38.0982C618.295 37.4822 619.015 37.1822 619.847 37.1982C620.623 37.1982 621.271 37.4582 621.791 37.9782C622.311 38.4902 622.571 39.1302 622.571 39.8982C622.571 40.1302 622.539 40.3942 622.475 40.6902ZM618.107 39.7062H621.311C621.303 39.2662 621.155 38.9182 620.867 38.6622C620.579 38.3982 620.223 38.2662 619.799 38.2662C619.383 38.2662 619.019 38.3982 618.707 38.6622C618.403 38.9182 618.203 39.2662 618.107 39.7062ZM622.371 45.4062V44.3382C622.563 44.3622 622.735 44.3742 622.887 44.3742C623.271 44.3742 623.555 44.2942 623.739 44.1342C623.923 43.9742 624.015 43.7142 624.015 43.3542V37.3302H625.275V43.4622C625.275 44.1422 625.091 44.6542 624.723 44.9982C624.363 45.3422 623.851 45.5142 623.187 45.5142C622.859 45.5142 622.587 45.4782 622.371 45.4062ZM624.039 35.7222C623.871 35.5622 623.787 35.3662 623.787 35.1342C623.787 34.9022 623.871 34.7062 624.039 34.5462C624.207 34.3782 624.411 34.2942 624.651 34.2942C624.883 34.2942 625.083 34.3782 625.251 34.5462C625.419 34.7062 625.503 34.9022 625.503 35.1342C625.503 35.3662 625.419 35.5622 625.251 35.7222C625.083 35.8822 624.883 35.9622 624.651 35.9622C624.411 35.9622 624.207 35.8822 624.039 35.7222ZM632.401 40.6902H628.009C628.089 41.1702 628.301 41.5502 628.645 41.8302C628.997 42.1022 629.425 42.2382 629.929 42.2382C630.553 42.2382 631.125 42.0062 631.645 41.5422L632.245 42.4062C631.581 43.0382 630.797 43.3542 629.893 43.3542C628.997 43.3542 628.245 43.0622 627.637 42.4782C627.029 41.8862 626.725 41.1542 626.725 40.2822C626.709 39.4342 627.005 38.7062 627.613 38.0982C628.221 37.4822 628.941 37.1822 629.773 37.1982C630.549 37.1982 631.197 37.4582 631.717 37.9782C632.237 38.4902 632.497 39.1302 632.497 39.8982C632.497 40.1302 632.465 40.3942 632.401 40.6902ZM628.033 39.7062H631.237C631.229 39.2662 631.081 38.9182 630.793 38.6622C630.505 38.3982 630.149 38.2662 629.725 38.2662C629.309 38.2662 628.945 38.3982 628.633 38.6622C628.329 38.9182 628.129 39.2662 628.033 39.7062ZM633.568 40.2702C633.552 39.4302 633.856 38.7062 634.48 38.0982C635.104 37.4822 635.84 37.1822 636.688 37.1982C637.792 37.1982 638.62 37.6542 639.172 38.5662L638.284 39.2622C637.868 38.6622 637.34 38.3622 636.7 38.3622C636.172 38.3622 635.732 38.5462 635.38 38.9142C635.028 39.2822 634.852 39.7342 634.852 40.2702C634.852 40.8142 635.028 41.2702 635.38 41.6382C635.732 42.0062 636.172 42.1902 636.7 42.1902C637.324 42.1902 637.852 41.8942 638.284 41.3022L639.172 41.9862C638.908 42.4182 638.56 42.7542 638.128 42.9942C637.696 43.2342 637.216 43.3542 636.688 43.3542C635.816 43.3542 635.076 43.0542 634.468 42.4542C633.868 41.8542 633.568 41.1262 633.568 40.2702ZM644.065 42.1542V43.2222C643.649 43.3102 643.301 43.3542 643.021 43.3542C642.333 43.3542 641.797 43.1822 641.413 42.8382C641.037 42.4942 640.849 41.9822 640.849 41.3022V38.4222H639.889V37.3302H640.849V35.7822H642.121V37.3302H643.873V38.4222H642.121V41.1942C642.121 41.5622 642.213 41.8262 642.397 41.9862C642.589 42.1382 642.885 42.2142 643.285 42.2142C643.421 42.2142 643.681 42.1942 644.065 42.1542ZM650.529 40.6902H646.137C646.217 41.1702 646.429 41.5502 646.773 41.8302C647.125 42.1022 647.553 42.2382 648.057 42.2382C648.681 42.2382 649.253 42.0062 649.773 41.5422L650.373 42.4062C649.709 43.0382 648.925 43.3542 648.021 43.3542C647.125 43.3542 646.373 43.0622 645.765 42.4782C645.157 41.8862 644.853 41.1542 644.853 40.2822C644.837 39.4342 645.133 38.7062 645.741 38.0982C646.349 37.4822 647.069 37.1822 647.901 37.1982C648.677 37.1982 649.325 37.4582 649.845 37.9782C650.365 38.4902 650.625 39.1302 650.625 39.8982C650.625 40.1302 650.593 40.3942 650.529 40.6902ZM646.161 39.7062H649.365C649.357 39.2662 649.209 38.9182 648.921 38.6622C648.633 38.3982 648.277 38.2662 647.853 38.2662C647.437 38.2662 647.073 38.3982 646.761 38.6622C646.457 38.9182 646.257 39.2662 646.161 39.7062ZM656.545 34.2222H657.817V43.2222H656.641V42.3822C656.185 43.0302 655.497 43.3542 654.577 43.3542C653.753 43.3542 653.065 43.0622 652.513 42.4782C651.969 41.8862 651.697 41.1542 651.697 40.2822C651.681 39.4182 651.953 38.6862 652.513 38.0862C653.073 37.4782 653.761 37.1822 654.577 37.1982C655.425 37.1982 656.081 37.4822 656.545 38.0502V34.2222ZM656.053 41.6982C656.397 41.3622 656.569 40.8902 656.569 40.2822C656.569 39.6742 656.393 39.2022 656.041 38.8662C655.697 38.5222 655.281 38.3502 654.793 38.3502C654.281 38.3502 653.849 38.5302 653.497 38.8902C653.153 39.2502 652.981 39.7102 652.981 40.2702C652.981 40.8302 653.153 41.2942 653.497 41.6622C653.841 42.0222 654.273 42.2022 654.793 42.2022C655.289 42.2022 655.709 42.0342 656.053 41.6982Z" fill="#333333"/>
<path d="M720.628 34.4632H722.226L725.004 41.2472H725.106L727.885 34.4632H729.483V43.1904H728.23V36.8751H728.149L725.575 43.1776H724.535L721.962 36.8708H721.881V43.1904H720.628V34.4632ZM734.052 43.3225C733.438 43.3225 732.903 43.1819 732.446 42.9007C731.988 42.6194 731.633 42.2259 731.38 41.7203C731.127 41.2146 731.001 40.6237 731.001 39.9475C731.001 39.2686 731.127 38.6748 731.38 38.1663C731.633 37.6578 731.988 37.2629 732.446 36.9816C732.903 36.7004 733.438 36.5597 734.052 36.5597C734.666 36.5597 735.201 36.7004 735.659 36.9816C736.116 37.2629 736.471 37.6578 736.724 38.1663C736.977 38.6748 737.103 39.2686 737.103 39.9475C737.103 40.6237 736.977 41.2146 736.724 41.7203C736.471 42.2259 736.116 42.6194 735.659 42.9007C735.201 43.1819 734.666 43.3225 734.052 43.3225ZM734.056 42.2529C734.454 42.2529 734.784 42.1478 735.045 41.9376C735.306 41.7274 735.5 41.4475 735.625 41.0981C735.752 40.7487 735.816 40.3637 735.816 39.9433C735.816 39.5257 735.752 39.1421 735.625 38.7927C735.5 38.4404 735.306 38.1578 735.045 37.9447C734.784 37.7316 734.454 37.6251 734.056 37.6251C733.656 37.6251 733.323 37.7316 733.059 37.9447C732.798 38.1578 732.603 38.4404 732.475 38.7927C732.35 39.1421 732.288 39.5257 732.288 39.9433C732.288 40.3637 732.35 40.7487 732.475 41.0981C732.603 41.4475 732.798 41.7274 733.059 41.9376C733.323 42.1478 733.656 42.2529 734.056 42.2529ZM739.8 39.3041V43.1904H738.525V36.645H739.748V37.7103H739.829C739.98 37.3637 740.216 37.0853 740.537 36.8751C740.861 36.6649 741.268 36.5597 741.76 36.5597C742.206 36.5597 742.597 36.6535 742.932 36.841C743.267 37.0257 743.527 37.3012 743.712 37.6677C743.896 38.0342 743.989 38.4873 743.989 39.0271V43.1904H742.714V39.1805C742.714 38.7061 742.591 38.3353 742.344 38.0683C742.097 37.7984 741.757 37.6634 741.325 37.6634C741.03 37.6634 740.767 37.7274 740.537 37.8552C740.31 37.983 740.129 38.1705 739.996 38.4177C739.865 38.662 739.8 38.9575 739.8 39.3041ZM748.753 36.645V37.6677H745.177V36.645H748.753ZM746.136 35.0768H747.41V41.2686C747.41 41.5157 747.447 41.7018 747.521 41.8268C747.595 41.949 747.69 42.0328 747.807 42.0782C747.926 42.1208 748.055 42.1421 748.195 42.1421C748.297 42.1421 748.386 42.135 748.463 42.1208C748.54 42.1066 748.599 42.0953 748.642 42.0867L748.872 43.1393C748.798 43.1677 748.693 43.1961 748.557 43.2245C748.42 43.2558 748.25 43.2728 748.045 43.2757C747.71 43.2813 747.398 43.2217 747.108 43.0967C746.818 42.9717 746.584 42.7785 746.405 42.5171C746.226 42.2558 746.136 41.9276 746.136 41.5328V35.0768ZM751.577 39.3041V43.1904H750.303V34.4632H751.56V37.7103H751.641C751.794 37.358 752.029 37.0782 752.344 36.8708C752.659 36.6634 753.071 36.5597 753.58 36.5597C754.029 36.5597 754.421 36.6521 754.756 36.8367C755.094 37.0214 755.355 37.297 755.54 37.6634C755.728 38.0271 755.821 38.4816 755.821 39.0271V43.1904H754.547V39.1805C754.547 38.7004 754.424 38.3282 754.176 38.064C753.929 37.797 753.585 37.6634 753.145 37.6634C752.844 37.6634 752.574 37.7274 752.335 37.8552C752.1 37.983 751.914 38.1705 751.777 38.4177C751.644 38.662 751.577 38.9575 751.577 39.3041Z" fill="#333333"/>
<path d="M764.417 36.1903C764.607 36.1903 764.797 36.2603 764.947 36.4103L767.947 39.4103L770.947 36.4103C771.237 36.1203 771.717 36.1203 772.007 36.4103C772.297 36.7003 772.297 37.1803 772.007 37.4703L768.477 41.0003C768.187 41.2903 767.707 41.2903 767.417 41.0003L763.887 37.4703C763.597 37.1803 763.597 36.7003 763.887 36.4103C764.037 36.2603 764.227 36.1903 764.417 36.1903Z" fill="#333333"/>
<rect x="709.986" y="23.1982" width="73.3654" height="30.9841" rx="9.5" stroke="#F0F0F0"/>
<path d="M92.7823 344.714V343.622C93.1823 343.662 93.4543 343.682 93.5983 343.682C94.0223 343.682 94.3343 343.602 94.5343 343.442C94.7343 343.282 94.8343 343.006 94.8343 342.614V336.794H96.1063V342.746C96.1063 343.434 95.9103 343.958 95.5183 344.318C95.1343 344.67 94.5863 344.846 93.8743 344.846C93.5463 344.846 93.1823 344.802 92.7823 344.714ZM102.634 341.15V344.714H101.458V344.054C101.018 344.582 100.39 344.846 99.574 344.846C98.958 344.846 98.462 344.69 98.086 344.378C97.71 344.066 97.522 343.654 97.522 343.142C97.522 342.63 97.718 342.222 98.11 341.918C98.502 341.614 99.03 341.462 99.694 341.462H101.362V341.078C101.362 340.67 101.25 340.358 101.026 340.142C100.81 339.926 100.502 339.818 100.102 339.818C99.502 339.818 98.958 340.11 98.47 340.694L97.738 339.95C98.314 339.11 99.142 338.69 100.222 338.69C100.958 338.69 101.542 338.906 101.974 339.338C102.414 339.77 102.634 340.374 102.634 341.15ZM101.362 342.482V342.374H99.85C99.154 342.374 98.806 342.614 98.806 343.094C98.806 343.334 98.898 343.526 99.082 343.67C99.274 343.806 99.526 343.874 99.838 343.874C100.27 343.874 100.63 343.742 100.918 343.478C101.214 343.214 101.362 342.882 101.362 342.482ZM109.536 341.03V344.714H108.276V341.198C108.276 340.79 108.156 340.462 107.916 340.214C107.684 339.958 107.376 339.83 106.992 339.83C106.6 339.83 106.276 339.958 106.02 340.214C105.772 340.47 105.648 340.798 105.648 341.198V344.714H104.388V338.822H105.564V339.398C106.012 338.926 106.6 338.69 107.328 338.69C108.008 338.69 108.544 338.902 108.936 339.326C109.336 339.75 109.536 340.318 109.536 341.03Z" fill="#333333"/>
<rect x="98.4541" y="120.714" width="6" height="40" rx="3" fill="#FF5630" fill-opacity="0.8"/>
<rect x="98.4541" y="168.714" width="6" height="40" rx="3" fill="#FFA600" fill-opacity="0.8"/>
<rect x="98.4541" y="216.714" width="6" height="100" rx="3" fill="#56CCF2"/>
<path d="M150.002 343.952V336.032H155.09V337.172H151.274V339.536H154.418V340.688H151.274V343.952H150.002ZM161.258 341.42H156.866C156.946 341.9 157.158 342.28 157.502 342.56C157.854 342.832 158.282 342.968 158.786 342.968C159.41 342.968 159.982 342.736 160.502 342.272L161.102 343.136C160.438 343.768 159.654 344.084 158.75 344.084C157.854 344.084 157.102 343.792 156.494 343.208C155.886 342.616 155.582 341.884 155.582 341.012C155.566 340.164 155.862 339.436 156.47 338.828C157.078 338.212 157.798 337.912 158.63 337.928C159.406 337.928 160.054 338.188 160.574 338.708C161.094 339.22 161.354 339.86 161.354 340.628C161.354 340.86 161.322 341.124 161.258 341.42ZM156.89 340.436H160.094C160.086 339.996 159.938 339.648 159.65 339.392C159.362 339.128 159.006 338.996 158.582 338.996C158.166 338.996 157.802 339.128 157.49 339.392C157.186 339.648 156.986 339.996 156.89 340.436ZM168.917 341.012C168.917 341.884 168.641 342.616 168.089 343.208C167.545 343.792 166.861 344.084 166.037 344.084C165.117 344.084 164.429 343.768 163.973 343.136V343.952H162.797V334.952H164.057V338.78C164.521 338.212 165.177 337.928 166.025 337.928C166.857 337.928 167.545 338.224 168.089 338.816C168.641 339.4 168.917 340.132 168.917 341.012ZM167.105 342.392C167.449 342.024 167.621 341.56 167.621 341C167.621 340.44 167.449 339.98 167.105 339.62C166.761 339.26 166.333 339.08 165.821 339.08C165.325 339.08 164.905 339.248 164.561 339.584C164.217 339.92 164.045 340.396 164.045 341.012C164.045 341.62 164.217 342.092 164.561 342.428C164.905 342.764 165.325 342.932 165.821 342.932C166.333 342.932 166.761 342.752 167.105 342.392Z" fill="#333333"/>
<rect x="155.731" y="234.952" width="6" height="81" rx="3" fill="#56CCF2"/>
<rect x="155.731" y="167.952" width="6" height="60" rx="3" fill="#FFA600" fill-opacity="0.8"/>
<rect x="155.731" y="95.9521" width="6" height="64" rx="3" fill="#FF5630" fill-opacity="0.8"/>
<path d="M334.955 336.599H335.387V344.651H334.115V339.683L331.847 342.659H331.415L329.135 339.671V344.651H327.863V336.599H328.307L331.631 341.027L334.955 336.599ZM341.916 341.087V344.651H340.74V343.991C340.3 344.519 339.672 344.783 338.856 344.783C338.24 344.783 337.744 344.627 337.368 344.315C336.992 344.003 336.804 343.591 336.804 343.079C336.804 342.567 337 342.159 337.392 341.855C337.784 341.551 338.312 341.399 338.976 341.399H340.644V341.015C340.644 340.607 340.532 340.295 340.308 340.079C340.092 339.863 339.784 339.755 339.384 339.755C338.784 339.755 338.24 340.047 337.752 340.631L337.02 339.887C337.596 339.047 338.424 338.627 339.504 338.627C340.24 338.627 340.824 338.843 341.256 339.275C341.696 339.707 341.916 340.311 341.916 341.087ZM340.644 342.419V342.311H339.132C338.436 342.311 338.088 342.551 338.088 343.031C338.088 343.271 338.18 343.463 338.364 343.607C338.556 343.743 338.808 343.811 339.12 343.811C339.552 343.811 339.912 343.679 340.2 343.415C340.496 343.151 340.644 342.819 340.644 342.419ZM347.773 338.759H349.117L346.249 345.323C346.001 345.883 345.705 346.291 345.361 346.547C345.017 346.811 344.593 346.943 344.089 346.943C343.753 346.943 343.429 346.903 343.117 346.823V345.755C343.445 345.787 343.677 345.803 343.813 345.803C344.421 345.803 344.849 345.515 345.097 344.939L345.337 344.387L342.985 338.759H344.341L346.033 343.043L347.773 338.759Z" fill="#333333"/>
<rect x="334.605" y="228.651" width="6" height="88" rx="3" fill="#56CCF2"/>
<rect x="334.605" y="190.651" width="6" height="28" rx="3" fill="#FFA600" fill-opacity="0.8"/>
<rect x="334.605" y="118.651" width="6" height="62" rx="3" fill="#FF5630" fill-opacity="0.8"/>
<path d="M388.529 345.222V344.13C388.929 344.17 389.201 344.19 389.345 344.19C389.769 344.19 390.081 344.11 390.281 343.95C390.481 343.79 390.581 343.514 390.581 343.122V337.302H391.853V343.254C391.853 343.942 391.657 344.466 391.265 344.826C390.881 345.178 390.333 345.354 389.621 345.354C389.293 345.354 388.929 345.31 388.529 345.222ZM393.641 342.75V339.33H394.889V342.846C394.889 343.246 395.013 343.57 395.261 343.818C395.509 344.066 395.829 344.19 396.221 344.19C396.597 344.19 396.905 344.066 397.145 343.818C397.393 343.57 397.517 343.246 397.517 342.846V339.33H398.777V342.75C398.777 343.526 398.533 344.154 398.045 344.634C397.565 345.114 396.957 345.354 396.221 345.354C395.469 345.354 394.849 345.118 394.361 344.646C393.881 344.166 393.641 343.534 393.641 342.75ZM405.693 341.538V345.222H404.433V341.706C404.433 341.298 404.313 340.97 404.073 340.722C403.841 340.466 403.533 340.338 403.149 340.338C402.757 340.338 402.433 340.466 402.177 340.722C401.929 340.978 401.805 341.306 401.805 341.706V345.222H400.545V339.33H401.721V339.906C402.169 339.434 402.757 339.198 403.485 339.198C404.165 339.198 404.701 339.41 405.093 339.834C405.493 340.258 405.693 340.826 405.693 341.538Z" fill="#333333"/>
<rect x="393.906" y="137.222" width="6" height="44" rx="3" fill="#FF5630" fill-opacity="0.8"/>
<rect x="393.906" y="189.222" width="6" height="60" rx="3" fill="#FFA600" fill-opacity="0.8"/>
<rect x="393.906" y="257.222" width="6" height="60" rx="3" fill="#56CCF2"/>
<path d="M445.928 344.238V343.146C446.328 343.186 446.6 343.206 446.744 343.206C447.168 343.206 447.48 343.126 447.68 342.966C447.88 342.806 447.98 342.53 447.98 342.138V336.318H449.252V342.27C449.252 342.958 449.056 343.482 448.664 343.842C448.28 344.194 447.732 344.37 447.02 344.37C446.692 344.37 446.328 344.326 445.928 344.238ZM451.04 341.766V338.346H452.288V341.862C452.288 342.262 452.412 342.586 452.66 342.834C452.908 343.082 453.228 343.206 453.62 343.206C453.996 343.206 454.304 343.082 454.544 342.834C454.792 342.586 454.916 342.262 454.916 341.862V338.346H456.176V341.766C456.176 342.542 455.932 343.17 455.444 343.65C454.964 344.13 454.356 344.37 453.62 344.37C452.868 344.37 452.248 344.134 451.76 343.662C451.28 343.182 451.04 342.55 451.04 341.766ZM457.943 344.238V335.238H459.203V344.238H457.943ZM465.129 338.346H466.473L463.605 344.91C463.357 345.47 463.061 345.878 462.717 346.134C462.373 346.398 461.949 346.53 461.445 346.53C461.109 346.53 460.785 346.49 460.473 346.41V345.342C460.801 345.374 461.033 345.39 461.169 345.39C461.777 345.39 462.205 345.102 462.453 344.526L462.693 343.974L460.341 338.346H461.697L463.389 342.63L465.129 338.346Z" fill="#333333"/>
<rect x="453.188" y="236.238" width="6" height="80" rx="3" fill="#56CCF2"/>
<rect x="453.188" y="168.238" width="6" height="60" rx="3" fill="#FFA600" fill-opacity="0.8"/>
<rect x="453.188" y="105.238" width="6" height="55" rx="3" fill="#FF5630" fill-opacity="0.8"/>
<path d="M512.187 344.714L511.623 343.394H508.059L507.495 344.714H506.139L509.631 336.662H510.063L513.555 344.714H512.187ZM511.167 342.302L509.847 339.026L508.515 342.302H511.167ZM514.496 342.242V338.822H515.744V342.338C515.744 342.738 515.868 343.062 516.116 343.31C516.364 343.558 516.684 343.682 517.076 343.682C517.452 343.682 517.76 343.558 518 343.31C518.248 343.062 518.372 342.738 518.372 342.338V338.822H519.632V342.242C519.632 343.018 519.388 343.646 518.9 344.126C518.42 344.606 517.812 344.846 517.076 344.846C516.324 344.846 515.704 344.61 515.216 344.138C514.736 343.658 514.496 343.026 514.496 342.242ZM526.02 338.822H527.184V344.102C527.184 345.022 526.916 345.734 526.38 346.238C525.852 346.75 525.136 347.006 524.232 347.006C523.144 347.006 522.2 346.634 521.4 345.89L522.096 345.014C522.792 345.574 523.48 345.854 524.16 345.854C524.704 345.854 525.132 345.71 525.444 345.422C525.764 345.134 525.924 344.718 525.924 344.174V343.754C525.46 344.314 524.796 344.594 523.932 344.594C523.108 344.594 522.424 344.318 521.88 343.766C521.336 343.206 521.064 342.498 521.064 341.642C521.064 340.786 521.336 340.082 521.88 339.53C522.424 338.97 523.108 338.69 523.932 338.69C524.868 338.69 525.564 339.014 526.02 339.662V338.822ZM525.936 341.63C525.936 341.054 525.768 340.61 525.432 340.298C525.096 339.978 524.672 339.818 524.16 339.818C523.648 339.818 523.22 339.986 522.876 340.322C522.532 340.658 522.36 341.098 522.36 341.642C522.36 342.194 522.532 342.642 522.876 342.986C523.228 343.322 523.656 343.49 524.16 343.49C524.648 343.49 525.064 343.33 525.408 343.01C525.76 342.682 525.936 342.222 525.936 341.63Z" fill="#333333"/>
<rect x="513.484" y="120.714" width="6" height="40" rx="3" fill="#FF5630" fill-opacity="0.8"/>
<rect x="513.484" y="168.714" width="6" height="40" rx="3" fill="#FFA600" fill-opacity="0.8"/>
<rect x="513.484" y="216.714" width="6" height="100" rx="3" fill="#56CCF2"/>
<path d="M627.714 342.786C627.698 341.658 628.102 340.69 628.926 339.882C629.75 339.074 630.73 338.678 631.866 338.694C632.994 338.678 633.974 339.074 634.806 339.882C635.646 340.69 636.054 341.658 636.03 342.786C636.054 343.914 635.646 344.882 634.806 345.69C633.974 346.498 632.994 346.894 631.866 346.878C630.73 346.894 629.746 346.498 628.914 345.69C628.09 344.882 627.69 343.914 627.714 342.786ZM634.722 342.774C634.722 341.942 634.45 341.25 633.906 340.698C633.362 340.138 632.686 339.858 631.878 339.858C631.062 339.858 630.382 340.134 629.838 340.686C629.302 341.238 629.034 341.934 629.034 342.774C629.034 343.622 629.302 344.326 629.838 344.886C630.374 345.438 631.054 345.714 631.878 345.714C632.686 345.714 633.362 345.434 633.906 344.874C634.45 344.314 634.722 343.614 634.722 342.774ZM637.102 343.794C637.086 342.954 637.39 342.23 638.014 341.622C638.638 341.006 639.374 340.706 640.222 340.722C641.326 340.722 642.154 341.178 642.706 342.09L641.818 342.786C641.402 342.186 640.874 341.886 640.234 341.886C639.706 341.886 639.266 342.07 638.914 342.438C638.562 342.806 638.386 343.258 638.386 343.794C638.386 344.338 638.562 344.794 638.914 345.162C639.266 345.53 639.706 345.714 640.234 345.714C640.858 345.714 641.386 345.418 641.818 344.826L642.706 345.51C642.442 345.942 642.094 346.278 641.662 346.518C641.23 346.758 640.75 346.878 640.222 346.878C639.35 346.878 638.61 346.578 638.002 345.978C637.402 345.378 637.102 344.65 637.102 343.794ZM647.599 345.678V346.746C647.183 346.834 646.835 346.878 646.555 346.878C645.867 346.878 645.331 346.706 644.947 346.362C644.571 346.018 644.383 345.506 644.383 344.826V341.946H643.423V340.854H644.383V339.306H645.655V340.854H647.407V341.946H645.655V344.718C645.655 345.086 645.747 345.35 645.931 345.51C646.123 345.662 646.419 345.738 646.819 345.738C646.955 345.738 647.215 345.718 647.599 345.678Z" fill="#333333"/>
<rect x="634.081" y="285.746" width="6" height="33" rx="3" fill="#56CCF2"/>
<rect x="634.081" y="246.746" width="6" height="30" rx="3" fill="#FFA600" fill-opacity="0.8"/>
<rect x="634.081" y="186.746" width="6" height="52" rx="3" fill="#FF5630" fill-opacity="0.8"/>
<path d="M693.056 336.318H694.328V344.37H693.896L689.072 338.874V344.238H687.8V336.186H688.244L693.056 341.658V336.318ZM695.817 341.286C695.801 340.446 696.101 339.722 696.717 339.114C697.341 338.498 698.077 338.198 698.925 338.214C699.781 338.198 700.521 338.498 701.145 339.114C701.769 339.73 702.073 340.454 702.057 341.286C702.073 342.126 701.769 342.854 701.145 343.47C700.521 344.086 699.781 344.386 698.925 344.37C698.077 344.386 697.341 344.086 696.717 343.47C696.101 342.846 695.801 342.118 695.817 341.286ZM700.761 341.298C700.761 340.754 700.585 340.298 700.233 339.93C699.881 339.554 699.449 339.366 698.937 339.366C698.417 339.366 697.981 339.554 697.629 339.93C697.277 340.298 697.101 340.754 697.101 341.298C697.101 341.842 697.273 342.298 697.617 342.666C697.969 343.026 698.405 343.206 698.925 343.206C699.445 343.206 699.881 343.022 700.233 342.654C700.585 342.286 700.761 341.834 700.761 341.298ZM707.371 338.346H708.715L705.871 344.37H705.439L702.583 338.346H703.927L705.655 342.246L707.371 338.346Z" fill="#333333"/>
<rect x="694.373" y="232.238" width="6" height="84" rx="3" fill="#56CCF2"/>
<rect x="694.373" y="144.238" width="6" height="80" rx="3" fill="#FFA600" fill-opacity="0.8"/>
<rect x="694.373" y="105.238" width="6" height="31" rx="3" fill="#FF5630" fill-opacity="0.8"/>
<path d="M748.783 345.984V338.064H751.267C752.555 338.064 753.595 338.428 754.387 339.156C755.179 339.884 755.575 340.836 755.575 342.012C755.575 343.172 755.175 344.124 754.375 344.868C753.583 345.612 752.547 345.984 751.267 345.984H748.783ZM750.055 344.844H751.255C752.167 344.844 752.895 344.584 753.439 344.064C753.991 343.536 754.267 342.852 754.267 342.012C754.267 341.164 753.995 340.488 753.451 339.984C752.907 339.472 752.175 339.216 751.255 339.216H750.055V344.844ZM762.312 343.452H757.92C758 343.932 758.212 344.312 758.556 344.592C758.908 344.864 759.336 345 759.84 345C760.464 345 761.036 344.768 761.556 344.304L762.156 345.168C761.492 345.8 760.708 346.116 759.804 346.116C758.908 346.116 758.156 345.824 757.548 345.24C756.94 344.648 756.636 343.916 756.636 343.044C756.62 342.196 756.916 341.468 757.524 340.86C758.132 340.244 758.852 339.944 759.684 339.96C760.46 339.96 761.108 340.22 761.628 340.74C762.148 341.252 762.408 341.892 762.408 342.66C762.408 342.892 762.376 343.156 762.312 343.452ZM757.944 342.468H761.148C761.14 342.028 760.992 341.68 760.704 341.424C760.416 341.16 760.06 341.028 759.636 341.028C759.22 341.028 758.856 341.16 758.544 341.424C758.24 341.68 758.04 342.028 757.944 342.468ZM763.479 343.032C763.463 342.192 763.767 341.468 764.391 340.86C765.015 340.244 765.751 339.944 766.599 339.96C767.703 339.96 768.531 340.416 769.083 341.328L768.195 342.024C767.779 341.424 767.251 341.124 766.611 341.124C766.083 341.124 765.643 341.308 765.291 341.676C764.939 342.044 764.763 342.496 764.763 343.032C764.763 343.576 764.939 344.032 765.291 344.4C765.643 344.768 766.083 344.952 766.611 344.952C767.235 344.952 767.763 344.656 768.195 344.064L769.083 344.748C768.819 345.18 768.471 345.516 768.039 345.756C767.607 345.996 767.127 346.116 766.599 346.116C765.727 346.116 764.987 345.816 764.379 345.216C763.779 344.616 763.479 343.888 763.479 343.032Z" fill="#333333"/>
<rect x="756.674" y="161.984" width="6" height="30" rx="3" fill="#FF5630" fill-opacity="0.8"/>
<rect x="756.674" y="287.984" width="6" height="30" rx="3" fill="#56CCF2"/>
<rect x="756.674" y="199.984" width="6" height="79" rx="3" fill="#FFA600" fill-opacity="0.8"/>
<path d="M567.659 342.368L568.559 341.684C569.135 342.524 569.827 342.944 570.635 342.944C571.043 342.944 571.371 342.844 571.619 342.644C571.875 342.444 572.003 342.176 572.003 341.84C572.003 341.568 571.919 341.356 571.751 341.204C571.583 341.044 571.279 340.86 570.839 340.652L569.963 340.244C569.347 339.964 568.883 339.656 568.571 339.32C568.267 338.976 568.115 338.552 568.115 338.048C568.115 337.416 568.355 336.9 568.835 336.5C569.315 336.1 569.907 335.9 570.611 335.9C571.163 335.9 571.663 336.028 572.111 336.284C572.567 336.54 572.919 336.884 573.167 337.316L572.279 338C571.847 337.36 571.291 337.04 570.611 337.04C570.259 337.04 569.971 337.124 569.747 337.292C569.523 337.46 569.411 337.696 569.411 338C569.419 338.144 569.435 338.264 569.459 338.36C569.491 338.448 569.567 338.544 569.687 338.648C569.807 338.744 569.891 338.804 569.939 338.828C569.987 338.852 570.143 338.932 570.407 339.068C570.455 339.092 570.491 339.112 570.515 339.128L571.403 339.536C572.067 339.84 572.547 340.164 572.843 340.508C573.147 340.852 573.299 341.28 573.299 341.792C573.299 342.472 573.047 343.024 572.543 343.448C572.047 343.872 571.415 344.084 570.647 344.084C570.007 344.084 569.427 343.932 568.907 343.628C568.387 343.324 567.971 342.904 567.659 342.368ZM580.146 341.42H575.754C575.834 341.9 576.046 342.28 576.39 342.56C576.742 342.832 577.17 342.968 577.674 342.968C578.298 342.968 578.87 342.736 579.39 342.272L579.99 343.136C579.326 343.768 578.542 344.084 577.638 344.084C576.742 344.084 575.99 343.792 575.382 343.208C574.774 342.616 574.47 341.884 574.47 341.012C574.454 340.164 574.75 339.436 575.358 338.828C575.966 338.212 576.686 337.912 577.518 337.928C578.294 337.928 578.942 338.188 579.462 338.708C579.982 339.22 580.242 339.86 580.242 340.628C580.242 340.86 580.21 341.124 580.146 341.42ZM575.778 340.436H578.982C578.974 339.996 578.826 339.648 578.538 339.392C578.25 339.128 577.894 338.996 577.47 338.996C577.054 338.996 576.69 339.128 576.378 339.392C576.074 339.648 575.874 339.996 575.778 340.436ZM587.805 341C587.805 341.88 587.529 342.616 586.977 343.208C586.433 343.792 585.745 344.084 584.913 344.084C584.097 344.084 583.441 343.8 582.945 343.232V346.112H581.685V338.06H582.861V338.888C583.309 338.248 583.993 337.928 584.913 337.928C585.745 337.928 586.433 338.224 586.977 338.816C587.529 339.4 587.805 340.128 587.805 341ZM585.993 342.392C586.337 342.032 586.509 341.572 586.509 341.012C586.509 340.452 586.337 339.992 585.993 339.632C585.649 339.264 585.221 339.08 584.709 339.08C584.213 339.08 583.793 339.248 583.449 339.584C583.105 339.92 582.933 340.392 582.933 341C582.933 341.616 583.105 342.092 583.449 342.428C583.793 342.764 584.213 342.932 584.709 342.932C585.221 342.932 585.649 342.752 585.993 342.392Z" fill="#333333"/>
<rect x="574.785" y="235.952" width="6" height="80" rx="3" fill="#56CCF2"/>
<rect x="574.785" y="167.952" width="6" height="60" rx="3" fill="#FFA600" fill-opacity="0.8"/>
<rect x="574.785" y="95.9521" width="6" height="64" rx="3" fill="#FF5630" fill-opacity="0.8"/>
<path d="M216.415 338.123H216.847V346.175H215.575V341.207L213.307 344.183H212.875L210.595 341.195V346.175H209.323V338.123H209.767L213.091 342.551L216.415 338.123ZM223.376 342.611V346.175H222.2V345.515C221.76 346.043 221.132 346.307 220.316 346.307C219.7 346.307 219.204 346.151 218.828 345.839C218.452 345.527 218.264 345.115 218.264 344.603C218.264 344.091 218.46 343.683 218.852 343.379C219.244 343.075 219.772 342.923 220.436 342.923H222.104V342.539C222.104 342.131 221.992 341.819 221.768 341.603C221.552 341.387 221.244 341.279 220.844 341.279C220.244 341.279 219.7 341.571 219.212 342.155L218.48 341.411C219.056 340.571 219.884 340.151 220.964 340.151C221.7 340.151 222.284 340.367 222.716 340.799C223.156 341.231 223.376 341.835 223.376 342.611ZM222.104 343.943V343.835H220.592C219.896 343.835 219.548 344.075 219.548 344.555C219.548 344.795 219.64 344.987 219.824 345.131C220.016 345.267 220.268 345.335 220.58 345.335C221.012 345.335 221.372 345.203 221.66 344.939C221.956 344.675 222.104 344.343 222.104 343.943ZM228.502 340.283V341.399H228.118C227.606 341.399 227.19 341.543 226.87 341.831C226.55 342.119 226.39 342.519 226.39 343.031V346.175H225.13V340.283H226.306V341.051C226.746 340.499 227.318 340.223 228.022 340.223C228.182 340.223 228.342 340.243 228.502 340.283Z" fill="#333333"/>
<rect x="215.022" y="289.175" width="6" height="29" rx="3" fill="#56CCF2"/>
<rect x="215.022" y="200.175" width="6" height="79" rx="3" fill="#FFA600" fill-opacity="0.8"/>
<rect x="215.022" y="168.175" width="6" height="24" rx="3" fill="#FF5630" fill-opacity="0.8"/>
<path d="M274.118 345.571L273.554 344.251H269.99L269.426 345.571H268.07L271.562 337.519H271.994L275.486 345.571H274.118ZM273.098 343.159L271.778 339.883L270.446 343.159H273.098ZM282.783 342.619C282.783 343.499 282.507 344.235 281.955 344.827C281.411 345.411 280.723 345.703 279.891 345.703C279.075 345.703 278.419 345.419 277.923 344.851V347.731H276.663V339.679H277.839V340.507C278.287 339.867 278.971 339.547 279.891 339.547C280.723 339.547 281.411 339.843 281.955 340.435C282.507 341.019 282.783 341.747 282.783 342.619ZM280.971 344.011C281.315 343.651 281.487 343.191 281.487 342.631C281.487 342.071 281.315 341.611 280.971 341.251C280.627 340.883 280.199 340.699 279.687 340.699C279.191 340.699 278.771 340.867 278.427 341.203C278.083 341.539 277.911 342.011 277.911 342.619C277.911 343.235 278.083 343.711 278.427 344.047C278.771 344.383 279.191 344.551 279.687 344.551C280.199 344.551 280.627 344.371 280.971 344.011ZM287.605 339.679V340.795H287.221C286.709 340.795 286.293 340.939 285.973 341.227C285.653 341.515 285.493 341.915 285.493 342.427V345.571H284.233V339.679H285.409V340.447C285.849 339.895 286.421 339.619 287.125 339.619C287.285 339.619 287.445 339.639 287.605 339.679Z" fill="#333333"/>
<rect x="274.313" y="288.571" width="6" height="29" rx="3" fill="#56CCF2"/>
<rect x="274.313" y="148.571" width="6" height="43" rx="3" fill="#FF5630" fill-opacity="0.8"/>
<rect x="274.313" y="199.571" width="6" height="79" rx="3" fill="#FFA600" fill-opacity="0.8"/>
</svg>
